<svg version="1.1" xmlns="http://www.w3.org/2000/svg" xmlns:xlink="http://www.w3.org/1999/xlink" width="48" height="48"><defs><linearGradient x1="-2.66002" y1="9.23958" x2="55.01334" y2="41.15454" gradientUnits="userSpaceOnUse" id="color-1"><stop offset="0.45" stop-color="#000000" stop-opacity="0.39"></stop><stop offset="1" stop-color="#000000" stop-opacity="0"></stop></linearGradient><filter id="dropshadow-base"><feColorMatrix type="matrix" values="0 0 0 0 0  0 0 0 0 0  0 0 0 0 0  0 0 0 .8 0"></feColorMatrix> <feOffset dx="0" dy="1"></feOffset> <feGaussianBlur stdDeviation="1"></feGaussianBlur> <feComposite in="SourceGraphic"></feComposite></filter><filter id="dropshadow-banner" x="-10%" y="-10%" width="120%" height="130%"><feColorMatrix type="matrix" values="0 0 0 0 0  0 0 0 0 0  0 0 0 0 0  0 0 0 .4 0"></feColorMatrix> <feOffset dx="0" dy="1"></feOffset> <feGaussianBlur stdDeviation="0.5"></feGaussianBlur> <feComposite in="SourceGraphic"></feComposite></filter></defs><g fill="none" fill-rule="nonzero" stroke="none" stroke-width="none" stroke-linecap="butt" stroke-linejoin="miter" stroke-miterlimit="10" stroke-dasharray="" stroke-dashoffset="0" font-family="none" font-weight="none" font-size="none" text-anchor="none" style="mix-blend-mode: normal"><path d="M2,24c0,-12.15026 9.84974,-22 22,-22c12.15026,0 22,9.84974 22,22c0,12.15026 -9.84974,22 -22,22c-12.15026,0 -22,-9.84974 -22,-22z" id="base 1 9" fill="#42a5f5" stroke="none" stroke-width="1"></path><path d="M21.27719,41.15454c-1.83331,0 -3.44136,-0.59106 -4.32274,-1.47244l-1.2195,-1.2195h-5.22548c-1.71515,0 -3.23313,-0.51733 -4.14339,-1.30571c-2.68878,-3.5979 -4.3023,-8.04619 -4.36424,-12.86856c0.12412,-0.00553 0.24947,-0.00834 0.3759,-0.00834c0.1455,0 0.29306,0.00495 0.45043,0.01424c0.46146,-1.72335 2.60757,-3.07032 5.36127,-3.45771c0.09943,-0.38183 0.28677,-0.74245 0.54673,-1.07112l-1.6857,-1.6857c-0.09902,-0.09902 -0.15542,-0.23361 -0.15542,-0.41176c0,-1.45694 3.77311,0 3.77311,0l0.54331,0.54331c0.27603,-0.08077 0.56442,-0.14479 0.86256,-0.19025c-0.04471,-0.45088 0.00374,-0.90882 0.14536,-1.34446c0.09497,-0.29245 0.22978,-0.56833 0.39924,-0.82048l-3.00492,-3.00492c-0.39532,-0.39532 -0.57732,-0.80628 -0.23381,-1.14966c0.34331,-0.34325 0.75412,-0.1613 1.14931,0.23388c0,0 0,0 0,0l3.00871,3.00871c0.53829,-0.35575 1.17051,-0.54631 1.81787,-0.54631c0.43314,0 0.85774,0.08534 1.2511,0.24667c0.08602,-0.04084 0.17339,-0.08038 0.26205,-0.11858l-1.51315,-1.51315c0,0 -1.45694,-3.77311 0,-3.77311c0.17809,0 0.31263,0.05639 0.41162,0.15538c0,0 0,0 0,0l3.61654,3.61654c0.56619,-0.92486 1.35093,-1.87431 1.93817,-1.28707l1.59285,1.59285c1.47047,-2.10715 4.58575,-3.51051 8.0041,-3.51051c3.00051,0 5.67382,1.03625 7.28631,2.64874l2.69884,2.69884c1.44747,0.15875 2.75082,0.62569 3.76829,1.30165c0.54042,1.4805 0.92633,3.03536 1.13822,4.64504l-2.34703,-2.34703c-1.30343,-0.52037 -2.81158,-0.81552 -4.41291,-0.81552c-3.76593,0 -7.16401,1.70327 -8.40023,4.17438c-0.63153,-0.12425 -1.29041,-0.18962 -1.92657,-0.18962c-0.28107,0 -0.55848,0.01137 -0.83128,0.03351c0.17574,-0.10075 0.35827,-0.21131 0.53616,-0.32864l-0.74688,-0.74688c-0.27731,0.42045 -0.51682,0.86688 -0.67826,1.18807c-0.82004,0.14211 -1.58469,0.3838 -2.26512,0.70683c-0.39336,-0.16133 -0.81796,-0.24667 -1.2511,-0.24667c-0.69633,0 -1.37515,0.22048 -1.93839,0.62987c-0.56341,0.40921 -0.98291,0.98655 -1.19799,1.64892c-0.14161,0.43564 -0.19007,0.89358 -0.14536,1.34446c-1.97384,0.30097 -3.52005,1.41563 -3.88458,2.81552c-2.7537,0.38739 -4.89981,1.73435 -5.36127,3.45771c-0.15737,-0.00929 -0.30493,-0.01424 -0.45043,-0.01424c-0.12732,0 -0.25356,0.00285 -0.37854,0.00846c0.8412,0.37832 1.88512,0.60264 3.01453,0.60264h26.65878c1.81169,0.00015 3.46649,-0.41005 4.71965,-1.08368c-1.40876,3.63938 -3.75764,6.81049 -6.74871,9.21541zM42.03424,24.7484c1.66473,-0.38748 3.0566,-1.19663 3.91563,-2.2454c0.03324,0.4947 0.05013,0.99388 0.05013,1.497c0,1.46982 -0.14414,2.90598 -0.41905,4.29511z" fill="url(#color-1)" stroke="none" stroke-width="1"></path><path d="M46.88159,20.04981c0,2.18469 -2.03404,4.04379 -4.84735,4.69859c2.81331,0.56175 4.84735,2.15636 4.84735,4.03142c0,2.33944 -3.17466,4.2433 -7.07733,4.24299h-26.65879c-2.59053,0 -4.7313,-1.18016 -5.00761,-2.69193h-5.76011c-2.77738,0 -5.03777,-1.35654 -5.03777,-3.0239c0,-1.6689 2.26039,-3.02699 5.03777,-3.02699c0.1455,0 0.29306,0.00495 0.45043,0.01424c0.46145,-1.72335 2.60758,-3.07032 5.36128,-3.45771c0.36453,-1.3999 1.91074,-2.51456 3.88458,-2.81552c-0.04472,-0.45089 0.00373,-0.90881 0.14535,-1.34446c0.21508,-0.66238 0.63457,-1.23971 1.19799,-1.64891c0.56324,-0.40938 1.24205,-0.62988 1.93838,-0.62988c0.43314,0 0.85773,0.08534 1.2511,0.24666c0.68044,-0.32303 1.44509,-0.56471 2.26511,-0.70683c0.47972,-0.95447 1.64894,-3.01477 2.45027,-2.21301c0.64575,0.64564 -0.56671,1.53024 -1.5613,2.10044c0.27281,-0.02215 0.55022,-0.03352 0.83129,-0.03352c0.63617,0 1.29504,0.06537 1.92657,0.18961c1.23622,-2.47111 4.63429,-4.17437 8.40023,-4.17437c4.42636,0 8.14071,2.25513 8.78772,5.28857c0.03251,-0.00072 0.06449,-0.00072 0.09752,-0.00072c3.90267,0 7.07733,2.22226 7.07733,4.95521zM15.35576,13.01269c0,0 -1.45695,-3.77311 0,-3.77311c1.45677,0 0,3.77311 0,3.77311zM12.04765,14.36959c0,0 -3.69817,-1.63807 -2.66776,-2.66812c1.03005,-1.02987 2.66776,2.66812 2.66776,2.66812zM10.66817,17.66795c0,0 -3.77311,1.45713 -3.77311,0c0,-1.45695 3.77311,0 3.77311,0z" id="path 1 1" fill="none" stroke-opacity="0" stroke="#000000" stroke-width="0"></path><g id="vector 3"><g id="group_3 1" fill="#eeeeee" stroke-opacity="0" stroke="#000000" stroke-width="1"><path d="M39.80426,15.0946c-0.03302,0 -0.06501,0 -0.09752,0.00072c-0.64701,-3.03344 -4.36135,-5.28857 -8.78772,-5.28857c-3.76594,0 -7.16401,1.70326 -8.40023,4.17437c-0.63153,-0.12424 -1.2904,-0.18961 -1.92657,-0.18961c-3.50848,0 -6.44684,1.77153 -6.99633,4.1657c-0.15737,-0.01084 -0.30493,-0.01661 -0.45043,-0.01661c-2.77738,0 -5.03777,1.58444 -5.03777,3.53149c0,1.94525 2.26039,3.52788 5.03777,3.52788h26.65879c3.90267,0.00036 7.07733,-2.22082 7.07733,-4.95016c0,-2.73295 -3.17466,-4.95521 -7.07733,-4.95521z" id="path 1"></path></g><g id="group_2 1" fill="#cccccc" stroke-opacity="0" stroke="#000000" stroke-width="1"><path d="M29.03654,21.84057c-0.03302,0 -0.06501,0 -0.09752,0.00062c-0.64701,-2.60009 -4.36135,-4.53306 -8.78772,-4.53306c-3.76594,0 -7.16401,1.45994 -8.40023,3.57803c-0.63153,-0.10649 -1.2904,-0.16253 -1.92657,-0.16253c-3.50848,0 -6.44684,1.51845 -6.99633,3.5706c-0.15737,-0.00929 -0.30493,-0.01424 -0.45043,-0.01424c-2.77738,0 -5.03777,1.35809 -5.03777,3.02699c0,1.66735 2.26039,3.0239 5.03777,3.0239h26.65879c3.90267,0.00031 7.07733,-1.90356 7.07733,-4.24299c0,-2.34253 -3.17466,-4.24733 -7.07733,-4.24733z" id="second_front_cloud 1"></path></g><g id="group_1 1" fill="#aaaaaa" stroke-opacity="0" stroke="#000000" stroke-width="1"><path d="M39.80426,24.5325c-0.03302,0 -0.06501,0 -0.09752,0.00062c-0.64701,-2.60009 -4.36135,-4.53306 -8.78772,-4.53306c-3.76594,0 -7.16401,1.45994 -8.40023,3.57803c-0.63153,-0.10649 -1.2904,-0.16253 -1.92657,-0.16253c-3.50848,0 -6.44684,1.51845 -6.99633,3.5706c-0.15737,-0.00929 -0.30493,-0.01424 -0.45043,-0.01424c-2.77738,0 -5.03777,1.35809 -5.03777,3.02699c0,1.66735 2.26039,3.0239 5.03777,3.0239h26.65879c3.90267,0.00031 7.07733,-1.90356 7.07733,-4.24299c0,-2.34253 -3.17466,-4.24733 -7.07733,-4.24733z" id="back_cloud 1"></path></g><g id="group 1" fill="#dddddd" stroke-opacity="0" stroke="#000000" stroke-width="1"><path d="M29.02553,21.58752c-0.01651,0 -0.03251,0 -0.04876,0.00052c-0.3235,-2.16675 -2.18068,-3.77755 -4.39386,-3.77755c-1.88297,0 -3.58201,1.21662 -4.20012,2.98169c-0.31576,-0.08874 -0.6452,-0.13544 -0.96328,-0.13544c-1.75424,0 -3.22342,1.26538 -3.49816,2.9755c-0.07868,-0.00774 -0.15246,-0.01187 -0.22521,-0.01187c-1.38869,0 -2.51888,1.13174 -2.51888,2.5225c0,1.38946 1.1302,2.51992 2.51888,2.51992h13.32939c1.95134,0.00026 3.53867,-1.5863 3.53867,-3.53583c0,-1.95211 -1.58733,-3.53944 -3.53867,-3.53944z" id="front_cloud 1"></path></g><g id="group_4 1" stroke="none"><path d="M15.35576,9.23957c-1.45695,0 0,3.77311 0,3.77311c0,0 1.45677,-3.77311 0,-3.77311zM9.37989,11.70147c-1.03041,1.03005 2.66776,2.66812 2.66776,2.66812c0,0 -1.63771,-3.69799 -2.66776,-2.66812zM6.89505,17.66795c0,1.45713 3.77311,0 3.77311,0c0,0 -3.77311,-1.45695 -3.77311,0zM9.35695,23.644c1.03005,1.03041 2.66794,-2.66794 2.66794,-2.66794c0,0 -3.69799,1.63771 -2.66794,2.66794zM15.32343,26.12884c1.45695,0 0,-3.77311 0,-3.77311c0,0 -1.45695,3.77311 0,3.77311zM18.63173,20.999c0,0 1.63753,3.69799 2.66758,2.66776c1.03041,-1.03005 -2.66758,-2.66776 -2.66758,-2.66776zM20.01084,17.70046c0,0 3.77311,1.45695 3.77311,0c0,-1.45713 -3.77311,0 -3.77311,0zM21.32224,11.72458c-1.03005,-1.03059 -2.66794,2.66776 -2.66794,2.66776c0,0 3.69799,-1.63789 2.66794,-2.66776z" id="path_1 1" fill="#ff7043" stroke-width="0.078"></path><path d="M15.35576,14.39776c-0.69633,0 -1.37514,0.22049 -1.93838,0.62988c-0.56342,0.4092 -0.98292,0.98653 -1.19799,1.64891c-0.21526,0.6622 -0.21526,1.37587 0,2.03807c0.21508,0.6622 0.63457,1.23953 1.19799,1.64891c0.56324,0.4092 1.24205,0.6297 1.93838,0.6297c0.87421,0 1.71356,-0.34762 2.3317,-0.96594c0.61832,-0.61814 0.96594,-1.45749 0.96594,-2.3317c0,-0.87439 -0.34762,-1.71374 -0.96594,-2.33188c-0.61814,-0.61832 -1.45749,-0.96594 -2.3317,-0.96594z" id="path_2 1" fill="#ffd740" stroke-width="0.1036"></path></g></g><path d="M2,24c0,-12.15026 9.84974,-22 22,-22c12.15026,0 22,9.84974 22,22c0,12.15026 -9.84974,22 -22,22c-12.15026,0 -22,-9.84974 -22,-22z" id="base 1 5 1" fill="none" stroke="none" stroke-width="1"></path><path d="M2,24c0,-12.15026 9.84974,-22 22,-22c12.15026,0 22,9.84974 22,22c0,12.15026 -9.84974,22 -22,22c-12.15026,0 -22,-9.84974 -22,-22z" id="base 1 1 1" fill="none" stroke="none" stroke-width="1"></path><g id="vector 1 1" fill="#000000" stroke="none" stroke-width="1" font-family="Roboto, sans-serif" font-weight="400" font-size="14" text-anchor="start"><g id="group_3 1 1"></g><g id="group_2 1 1"></g><g id="group_1 1 1"></g><g id="group 1 1"></g><g id="group_4 1 1"></g></g><rect x="2" y="2" width="44" height="22" fill="none" stroke="none" stroke-width="1"></rect><path d="M2,24v-22h44v22z" fill="none" stroke="none" stroke-width="1"></path><path d="M2,24v-22h44v22z" fill="none" stroke="none" stroke-width="1"></path><path d="M2,24v-22h44v22z" fill="none" stroke="none" stroke-width="1"></path><path d="M2,24v-22h44v22z" fill="none" stroke="none" stroke-width="1"></path><g id="vector 2 1" fill="#000000" stroke="none" stroke-width="1" font-family="Roboto, sans-serif" font-weight="400" font-size="14" text-anchor="start"><g id="group_3 1 1"></g><g id="group_2 1 1"></g><g id="group_1 1 1"></g><g id="group 1 1"></g><g id="group_4 1 1"></g></g><rect x="2" y="2" width="44" height="22" fill="none" stroke="none" stroke-width="1"></rect><path d="M2,24v-22h44v22z" fill="none" stroke="none" stroke-width="1"></path><path d="M2,24v-22h44v22z" fill="none" stroke="none" stroke-width="1"></path><path d="M2,24v-22h44v22z" fill="none" stroke="none" stroke-width="1"></path><path d="M2,24v-22h44v22z" fill="none" stroke="none" stroke-width="1"></path></g></svg>