<svg xmlns="http://www.w3.org/2000/svg" xmlns:xlink="http://www.w3.org/1999/xlink" version="1.1" x="0px" y="0px" viewBox="0 0 100 125" enable-background="new 0 0 100 100" ><g><g><path d="M81.855,51.646c-0.061,0-0.121,0-0.181,0.002c-1.202-8.049-8.101-14.033-16.323-14.033    c-6.994,0-13.306,4.52-15.602,11.077c-1.173-0.33-2.397-0.504-3.579-0.504c-6.516,0-11.974,4.701-12.995,11.054    c-0.292-0.029-0.566-0.044-0.836-0.044c-5.159,0-9.357,4.204-9.357,9.37c0,5.162,4.198,9.361,9.357,9.361h49.516    C89.104,77.93,95,72.037,95,64.794C95,57.543,89.104,51.646,81.855,51.646z M81.855,76.455H32.341    c-4.346,0-7.881-3.538-7.881-7.887c0-4.354,3.535-7.896,7.881-7.896c0.405,0,0.833,0.04,1.347,0.128l0.776,0.132l0.081-0.783    c0.615-5.979,5.614-10.485,11.626-10.485c1.264,0,2.583,0.224,3.815,0.647l0.727,0.25l0.221-0.736    c1.892-6.32,7.819-10.735,14.418-10.735c7.703,0,14.127,5.767,14.944,13.413l0.077,0.721l0.721-0.063    c0.266-0.023,0.51-0.037,0.762-0.037c6.435,0,11.668,5.235,11.668,11.673C93.523,71.225,88.291,76.455,81.855,76.455z"/><path d="M30.091,50.979h-17.94c-3.129,0-5.676-2.549-5.676-5.682c0-3.137,2.546-5.688,5.676-5.688c0.287,0,0.603,0.03,0.966,0.094    l0.78,0.138l0.082-0.788c0.447-4.354,4.086-7.638,8.466-7.638c0.92,0,1.881,0.164,2.779,0.473l0.727,0.251l0.22-0.737    c1.379-4.625,5.717-7.854,10.549-7.854c5.635,0,10.337,4.22,10.94,9.814l0.078,0.723l0.723-0.066    c0.186-0.018,0.36-0.027,0.542-0.027c2.063,0,4.05,0.747,5.599,2.104l0.973-1.109c-1.809-1.587-4.131-2.463-6.539-2.471    c-0.981-6.001-6.158-10.443-12.314-10.443c-5.23,0-9.951,3.338-11.729,8.204c-0.838-0.223-1.692-0.335-2.545-0.335    c-4.885,0-8.985,3.48-9.829,8.212c-0.16-0.013-0.314-0.019-0.464-0.019C8.208,38.133,5,41.346,5,45.297    c0,3.945,3.208,7.155,7.151,7.155H30.09L30.091,50.979L30.091,50.979z"/></g></g></svg>