<svg width="160" height="160" xmlns="http://www.w3.org/2000/svg">
 <style type="text/css">.st0{display:none;}
	.st1{display:inline;}
	.st2{fill:none;stroke:#000000;stroke-width:0.1;stroke-miterlimit:10;}
	.st3{fill:none;}</style>

 <g>
  <title>background</title>
  <rect fill="none" id="canvas_background" height="162" width="162" y="-1" x="-1"/>
 </g>
 <g>
  <title>Layer 1</title>
  <g id="svg_1" class="st0">
   <g id="svg_2" class="st1">
    <rect id="svg_3" height="128" width="128" class="st2"/>
    <line id="svg_4" y2="124" x2="128" y1="124" x1="0" class="st2"/>
    <line id="svg_5" y2="120" x2="128" y1="120" x1="0" class="st2"/>
    <line id="svg_6" y2="116" x2="128" y1="116" x1="0" class="st2"/>
    <line id="svg_7" y2="112" x2="128" y1="112" x1="0" class="st2"/>
    <line id="svg_8" y2="108" x2="128" y1="108" x1="0" class="st2"/>
    <line id="svg_9" y2="104" x2="128" y1="104" x1="0" class="st2"/>
    <line id="svg_10" y2="100" x2="128" y1="100" x1="0" class="st2"/>
    <line id="svg_11" y2="96" x2="128" y1="96" x1="0" class="st2"/>
    <line id="svg_12" y2="92" x2="128" y1="92" x1="0" class="st2"/>
    <line id="svg_13" y2="88" x2="128" y1="88" x1="0" class="st2"/>
    <line id="svg_14" y2="84" x2="128" y1="84" x1="0" class="st2"/>
    <line id="svg_15" y2="80" x2="128" y1="80" x1="0" class="st2"/>
    <line id="svg_16" y2="76" x2="128" y1="76" x1="0" class="st2"/>
    <line id="svg_17" y2="72" x2="128" y1="72" x1="0" class="st2"/>
    <line id="svg_18" y2="68" x2="128" y1="68" x1="0" class="st2"/>
    <line id="svg_19" y2="64" x2="128" y1="64" x1="0" class="st2"/>
    <line id="svg_20" y2="60" x2="128" y1="60" x1="0" class="st2"/>
    <line id="svg_21" y2="56" x2="128" y1="56" x1="0" class="st2"/>
    <line id="svg_22" y2="52" x2="128" y1="52" x1="0" class="st2"/>
    <line id="svg_23" y2="48" x2="128" y1="48" x1="0" class="st2"/>
    <line id="svg_24" y2="44" x2="128" y1="44" x1="0" class="st2"/>
    <line id="svg_25" y2="40" x2="128" y1="40" x1="0" class="st2"/>
    <line id="svg_26" y2="36" x2="128" y1="36" x1="0" class="st2"/>
    <line id="svg_27" y2="32" x2="128" y1="32" x1="0" class="st2"/>
    <line id="svg_28" y2="28" x2="128" y1="28" x1="0" class="st2"/>
    <line id="svg_29" y2="24" x2="128" y1="24" x1="0" class="st2"/>
    <line id="svg_30" y2="20" x2="128" y1="20" x1="0" class="st2"/>
    <line id="svg_31" y2="16" x2="128" y1="16" x1="0" class="st2"/>
    <line id="svg_32" y2="12" x2="128" y1="12" x1="0" class="st2"/>
    <line id="svg_33" y2="8" x2="128" y1="8" x1="0" class="st2"/>
    <line id="svg_34" y2="4" x2="128" y1="4" x1="0" class="st2"/>
    <line id="svg_35" y2="128" x2="124" y1="0" x1="124" class="st2"/>
    <line id="svg_36" y2="128" x2="120" y1="0" x1="120" class="st2"/>
    <line id="svg_37" y2="128" x2="116" y1="0" x1="116" class="st2"/>
    <line id="svg_38" y2="128" x2="112" y1="0" x1="112" class="st2"/>
    <line id="svg_39" y2="128" x2="108" y1="0" x1="108" class="st2"/>
    <line id="svg_40" y2="128" x2="104" y1="0" x1="104" class="st2"/>
    <line id="svg_41" y2="128" x2="100" y1="0" x1="100" class="st2"/>
    <line id="svg_42" y2="128" x2="96" y1="0" x1="96" class="st2"/>
    <line id="svg_43" y2="128" x2="92" y1="0" x1="92" class="st2"/>
    <line id="svg_44" y2="128" x2="88" y1="0" x1="88" class="st2"/>
    <line id="svg_45" y2="128" x2="84" y1="0" x1="84" class="st2"/>
    <line id="svg_46" y2="128" x2="80" y1="0" x1="80" class="st2"/>
    <line id="svg_47" y2="128" x2="76" y1="0" x1="76" class="st2"/>
    <line id="svg_48" y2="128" x2="72" y1="0" x1="72" class="st2"/>
    <line id="svg_49" y2="128" x2="68" y1="0" x1="68" class="st2"/>
    <line id="svg_50" y2="128" x2="64" y1="0" x1="64" class="st2"/>
    <line id="svg_51" y2="128" x2="60" y1="0" x1="60" class="st2"/>
    <line id="svg_52" y2="128" x2="56" y1="0" x1="56" class="st2"/>
    <line id="svg_53" y2="128" x2="52" y1="0" x1="52" class="st2"/>
    <line id="svg_54" y2="128" x2="48" y1="0" x1="48" class="st2"/>
    <line id="svg_55" y2="128" x2="44" y1="0" x1="44" class="st2"/>
    <line id="svg_56" y2="128" x2="40" y1="0" x1="40" class="st2"/>
    <line id="svg_57" y2="128" x2="36" y1="0" x1="36" class="st2"/>
    <line id="svg_58" y2="128" x2="32" y1="0" x1="32" class="st2"/>
    <line id="svg_59" y2="128" x2="28" y1="0" x1="28" class="st2"/>
    <line id="svg_60" y2="128" x2="24" y1="0" x1="24" class="st2"/>
    <line id="svg_61" y2="128" x2="20" y1="0" x1="20" class="st2"/>
    <line id="svg_62" y2="128" x2="16" y1="0" x1="16" class="st2"/>
    <line id="svg_63" y2="128" x2="12" y1="0" x1="12" class="st2"/>
    <line id="svg_64" y2="128" x2="8" y1="0" x1="8" class="st2"/>
    <line id="svg_65" y2="128" x2="4" y1="0" x1="4" class="st2"/>
   </g>
  </g>
  <g stroke="null" id="svg_66">
   <g stroke="null" id="svg_67">
    <path stroke="null" id="svg_68" d="m36.760783,55.072139c3.438588,-0.73684 6.631563,-2.087714 9.578925,-3.929815c0.859647,-0.491227 1.964908,-0.245613 2.578941,0.614034c0.491227,0.859647 0.245613,1.964908 -0.614034,2.578941c-3.315782,2.087714 -6.999983,3.561395 -10.806992,4.421042c-2.210521,0.491227 -4.421042,0.73684 -6.631563,0.73684c6.75437,3.438588 14.859614,3.684202 21.736791,0.245613c6.877177,-3.438588 11.666639,-10.070152 12.894706,-17.684169c-2.824555,0.614034 -5.649109,0.982454 -8.596471,1.228067c-5.526303,0.491227 -9.578925,0.245613 -12.7719,0.122807c-3.929815,-0.245613 -6.263143,-0.36842 -8.719278,0.859647c-3.315782,1.719294 -5.649109,5.526303 -7.12279,11.421026c2.947361,0.122807 5.771916,-0.122807 8.473664,-0.614034z" class="st3"/>
    <path stroke="null" id="svg_69" d="m128.006182,45.861635l-0.245613,0c-0.36842,0 -0.73684,-0.122807 -1.105261,-0.245613c-0.491227,-0.122807 -0.982454,-0.245613 -1.473681,-0.245613c-0.982454,-0.122807 -1.964908,0.614034 -2.087714,1.596487c-0.122807,0.982454 0.614034,1.964908 1.596487,2.087714c0.36842,0 0.73684,0.122807 1.105261,0.245613c0.491227,0.122807 0.982454,0.245613 1.350874,0.245613c5.649109,1.350874 11.912253,5.771916 12.280673,12.035059c0.245613,5.526303 -3.070168,10.806992 -9.087698,13.999967c-12.894706,6.877177 -57.350742,5.649109 -81.420861,3.807009c-0.982454,-0.122807 -1.842101,0.73684 -1.964908,1.719294c-0.122807,0.982454 0.73684,1.842101 1.719294,1.964908c3.438588,0.245613 20.26311,1.473681 38.315699,1.473681c17.806976,0 36.842018,-1.228067 45.192876,-5.649109c7.245597,-3.929815 11.421026,-10.438572 11.052606,-17.438555c-0.491227,-8.350857 -8.228051,-13.87716 -15.228034,-15.596454z"/>
    <path stroke="null" id="svg_70" d="m102.830803,127.896529c-0.36842,0 -0.73684,0.122807 -1.228067,0.245613c-0.36842,0.122807 -0.73684,0.122807 -1.105261,0.245613c-0.982454,0.122807 -1.719294,0.982454 -1.596487,2.087714c0.122807,0.982454 0.859647,1.596487 1.842101,1.596487c0.122807,0 0.122807,0 0.245613,0c0.36842,0 0.859647,-0.122807 1.350874,-0.245613c0.36842,-0.122807 0.73684,-0.122807 1.105261,-0.245613l0.245613,0c6.508757,-1.596487 13.754354,-6.75437 14.122774,-14.368387c0.36842,-6.631563 -3.438588,-12.649093 -10.315765,-16.333295c-16.333295,-8.719278 -80.3156,-3.929815 -80.929634,-3.929815c-0.982454,0.122807 -1.719294,0.982454 -1.719294,1.964908c0.122807,0.982454 0.982454,1.719294 1.964908,1.719294c17.561362,-1.350874 66.07002,-3.315782 78.841919,3.438588c5.526303,2.947361 8.596471,7.736824 8.350857,12.894706c-0.245613,5.771916 -6.01753,9.701732 -11.175412,10.929799z"/>
    <path stroke="null" id="svg_71" d="m101.602735,63.914224c-2.824555,1.473681 -13.385933,1.596487 -21.859598,0.859647c-0.982454,-0.122807 -1.842101,0.614034 -1.964908,1.719294c-0.122807,0.982454 0.614034,1.842101 1.719294,1.964908c0.982454,0.122807 5.526303,0.36842 10.561379,0.36842c5.157883,0 10.806992,-0.36842 13.385933,-1.719294c2.456135,-1.350874 3.929815,-3.684202 3.684202,-6.140336c-0.122807,-2.947361 -2.701748,-4.912269 -5.280689,-5.526303l-0.245613,0c-0.122807,0 -0.122807,0 -0.245613,0c-0.122807,0 -0.36842,-0.122807 -0.491227,-0.122807c-0.982454,-0.122807 -1.964908,0.491227 -2.087714,1.596487c-0.122807,0.982454 0.491227,1.964908 1.596487,2.087714l0.122807,0c0.122807,0 0.245613,0.122807 0.491227,0.122807c1.105261,0.245613 2.333328,1.105261 2.333328,2.087714c0.122807,1.596487 -1.350874,2.456135 -1.719294,2.701748z"/>
    <path stroke="null" id="svg_72" d="m42.164279,65.756325c4.175429,0 8.350857,-0.982454 12.157866,-2.824555c8.842084,-4.421042 14.614001,-13.263127 15.228034,-23.210472l0.122807,-2.456135l-2.456135,0.614034c-3.438588,0.859647 -6.999983,1.473681 -10.561379,1.719294c-5.280689,0.491227 -9.087698,0.245613 -12.280673,0.122807c-4.052622,-0.245613 -7.245597,-0.491227 -10.561379,1.228067c-4.912269,2.578941 -8.228051,8.350857 -9.824538,17.192942l-0.245613,1.105261l0.859647,0.73684c5.280689,3.684202 11.421026,5.771916 17.561362,5.771916zm-6.508757,-21.613984c2.456135,-1.228067 4.789462,-1.105261 8.719278,-0.859647c3.192975,0.245613 7.245597,0.491227 12.7719,-0.122807c2.824555,-0.245613 5.771916,-0.73684 8.596471,-1.228067c-1.228067,7.614017 -6.01753,14.24558 -12.894706,17.684169c-6.877177,3.438588 -14.982421,3.192975 -21.736791,-0.245613c2.210521,0 4.421042,-0.245613 6.631563,-0.73684c3.807009,-0.859647 7.49121,-2.333328 10.806992,-4.421042c0.859647,-0.491227 1.105261,-1.719294 0.614034,-2.578941c-0.491227,-0.859647 -1.719294,-1.105261 -2.578941,-0.614034c-2.947361,1.842101 -6.140336,3.192975 -9.578925,3.929815c-2.701748,0.614034 -5.526303,0.73684 -8.350857,0.491227c1.228067,-5.771916 3.684202,-9.578925 6.999983,-11.298219z"/>
    <path stroke="null" id="svg_73" d="m65.374751,115.984276l-6.263143,5.649109c-0.73684,0.73684 -0.859647,1.842101 -0.122807,2.578941c0.36842,0.36842 0.859647,0.614034 1.350874,0.614034c0.491227,0 0.859647,-0.122807 1.228067,-0.491227l6.263143,-5.649109c0.73684,-0.73684 0.859647,-1.842101 0.122807,-2.578941c-0.614034,-0.73684 -1.842101,-0.859647 -2.578941,-0.122807z"/>
    <path stroke="null" id="svg_74" d="m108.479912,36.773937l6.263143,-5.649109c0.73684,-0.73684 0.859647,-1.842101 0.122807,-2.578941c-0.73684,-0.73684 -1.842101,-0.859647 -2.578941,-0.122807l-6.263143,5.649109c-0.73684,0.73684 -0.859647,1.842101 -0.122807,2.578941c0.36842,0.36842 0.859647,0.614034 1.350874,0.614034c0.36842,0 0.859647,-0.245613 1.228067,-0.491227z"/>
   </g>
  </g>
 </g>
</svg>