<svg xmlns="http://www.w3.org/2000/svg" xmlns:xlink="http://www.w3.org/1999/xlink" version="1.1" x="0px" y="0px" viewBox="0 0 100 125" enable-background="new 0 0 100 100" xml:space="preserve"><g display="none"><path display="inline" d="M53.208,26.833c8.301-9.13,9.961-24.069,9.961-24.069h-3.97c0,0-1.628,14.524-9.636,23.682   c-1.261-1.442-2.362-3.013-3.325-4.644h4.865c0.845-1.431,1.59-2.897,2.231-4.361h-9.327c-0.806-1.839-1.458-3.652-1.989-5.356   h13.304c0.495-1.586,0.887-3.067,1.186-4.362H40.834c-0.682-2.963-0.908-4.959-0.908-4.959H35.96c0,0,1.66,14.939,9.959,24.069   c0.571,0.627,1.123,1.236,1.661,1.834c-7.296,8.099-11.62,13.674-11.62,21.402c0,7.725,4.324,13.302,11.62,21.404   c-0.538,0.598-1.09,1.206-1.661,1.833c-8.299,9.13-9.959,24.068-9.959,24.068h3.966c0,0,0.21-1.826,0.82-4.563h15.849   c-0.286-1.284-0.659-2.759-1.147-4.363H41.895c0.514-1.693,1.15-3.51,1.939-5.354h9.675c-0.623-1.459-1.343-2.928-2.166-4.363   h-5.344c1.017-1.771,2.201-3.478,3.564-5.036c8.008,9.156,9.636,23.681,9.636,23.681h3.97c0,0-1.66-14.938-9.961-24.068   c-0.57-0.627-1.122-1.235-1.661-1.835c7.297-8.1,11.622-13.677,11.622-21.402c0-7.727-4.325-13.303-11.622-21.402   C52.086,28.069,52.638,27.46,53.208,26.833z M54.82,37.472h-8.522c-1.012,1.469-1.854,2.91-2.526,4.365h13.574   c0.929,2.009,1.521,4.052,1.743,6.247h-17.06c-0.065,0.649-0.111,1.306-0.111,1.985c0,0.816,0.062,1.604,0.157,2.378h16.968   c-0.269,2.188-0.897,4.231-1.876,6.249H43.95c0.704,1.449,1.588,2.89,2.626,4.363h7.964c-1.384,1.96-3.055,3.988-4.978,6.181   c-6.086-6.939-9.637-12.177-9.637-19.171c0-6.996,3.551-12.232,9.637-19.17C51.615,33.237,53.386,35.389,54.82,37.472z"/></g><g display="none"><g display="inline"><path d="M29.438,62.382c0,0,6.197,1.921,8.561,7.894C38,70.275,36.845,62.963,29.438,62.382z M92.883,7.014    c0,0-5.263-5.475-7.925-4.195c-2.662,1.281,0.294,5.301,0.294,5.301L71.918,21.325c0,0-3.896-3.044-5.222-1.948    c-2.236,1.852-0.407,4.148-0.407,4.148L28.402,61.738c0,0-1.097,0.806,1.019,3.53l-2.586,2.915c0,0-0.496,0.702,0.207,1.198    l-4.311,4.856c0,0-0.69,1.973-0.552,2.771c0,0-19.626,19.328-19.206,19.975c0.42,0.648,19.626-19.326,19.626-19.326    s1.75,0.009,2.151-0.061c0.399-0.069,5.409-5.048,5.409-5.048s0.872,0.879,1.337,0.595c0.466-0.287,3.021-2.784,3.021-2.784    s2.095,2.007,3.439,0.849c1.345-1.156,37.889-38.212,37.889-38.212s2.56,1.721,4.27,0.296c1.71-1.427-2.064-6.026-2.064-6.026    l13.404-13.008c0,0,3.149,2.751,4.971,0.175C98.244,11.855,92.883,7.014,92.883,7.014z M23.763,77.251    c-0.122-0.904-1.019-1.129-1.019-1.129C24.938,75.188,23.763,77.251,23.763,77.251z M30.373,65.721c0,0,1.983,0.758,3.799,3.737    L30.373,65.721z M38,70.275c-1.428,1.275-3.422-0.749-3.422-0.749c-1.35-3.061-4.24-4.313-4.24-4.313    c-2.281-2.489-1.267-3.179-1.267-3.179l12.298-12.268c0,0,0.514,2.554,3.187,5.764c2.904,2.519,5.495,2.828,5.495,2.828    S39.427,69.002,38,70.275z M50.851,56.437c-1.908-4.509-7.424-7.265-7.424-7.265C49.42,50.508,50.851,56.437,50.851,56.437z     M52.213,55.379c-2.734-6.322-7.71-7.73-7.71-7.73C50.544,48.668,52.213,55.379,52.213,55.379z M54.182,54.451    c-0.447-0.694-4.479-6.772-9.413-8.565l0.461-0.42c5.211,1.838,9.417,8.509,9.417,8.509L54.182,54.451z M88.378,6.348l1.036,3.631    L75.361,24.023c-1.342-1.96-2.808-2.345-2.808-2.345L88.378,6.348z M79.558,32.46c-1.526,1.292-2.867,0.082-2.867,0.082    s2.841-2.032-2.74-7.556s-7.146-2.064-7.146-2.064s-1.345-1.827,0.317-2.936c1.663-1.109,7.511,4.78,7.511,4.78    S81.085,31.169,79.558,32.46z M77.627,26.618c0,0-0.467-1.178-1.723-2.037l13.979-14.067l3.274,1.084L77.627,26.618z"/></g></g><g display="none"><path display="inline" d="M24.342,31.218c0,0-0.541-1.895-2.436-2.976c-1.894-1.082-1.622-1.758-2.435-1.758   s-2.706,0.134-2.977,0.946s-0.271,1.623-0.676,2.3c-0.406,0.675-0.677,2.84-0.542,3.517c0.136,0.677,0.677,1.217,0.406,1.624   c-0.27,0.405-2.3,2.842-2.977,3.923c-0.676,1.083-4.464,5.817-5.141,6.9c-0.676,1.083-1.623,1.489-1.353,2.3   c0.271,0.811,1.623,0.54,2.3,0.676c0.676,0.135,2.705,0.678,4.059,0.678c1.353,0,2.164-0.271,2.57-0.137   c0,0-0.406,0.948,0.542,0.948s2.841-0.677,3.653-0.407c0.811,0.271,5.141,1.084,6.899,0.541c0,0,2.029,1.488,2.3,2.572   c0.271,1.081,0.812,2.84,1.894,4.058c1.083,1.218,3.652,4.06,5.411,4.871c0,0-8.928,0-9.605-0.271   c-0.676-0.272-2.299-1.219-3.111-0.541c-0.812,0.675-1.759,0.945-2.299,0.945s-2.03,0.543-2.301,0.947c0,0,1.894-0.541,2.165,0.135   c0,0-1.624,1.354-1.758,2.031c0,0,1.487-0.812,2.029-0.678C21.5,64.5,21.5,64.5,21.5,64.5s0.676,0.541,1.488,0.404   c0,0-1.353,0.947-1.624,1.759c0,0,1.624-0.945,2.299-0.541c0,0,1.218,0.137,2.3,0c0,0-0.405,0.271-0.541,0.812   c0,0,0.811-0.404,1.352-0.135c0.542,0.271,0.542,0.271,0.542,0.271s0.677,0,1.489-0.137c0.812-0.135,1.353-0.945,2.435-0.812   c1.083,0.137,3.111,0.137,3.924,0c0.812-0.134,1.218-0.812,3.517-0.677c2.3,0.137,6.765,0.137,9.064-2.436   c0,0,8.793-3.247,18.399,2.436c0,0,3.924,3.654,7.713,4.06c0,0-2.301,1.622-2.842,1.758c-0.542,0.136-1.76,0-2.164,0.405   c0,0-0.277,0.122-1.176-0.156c-0.896-0.276-2.207-1.172-2.76-0.828c-0.552,0.346-1.103,0.828-1.793,0.896   c-0.69,0.071-1.863,0.967-1.933,1.242c-0.068,0.277-1.587,1.175-1.725,1.519c0,0,1.863-0.275,2.139-0.136   c0.275,0.136-0.966,0.895-1.311,1.792c0,0,1.517-1.173,2.346-0.76c0,0,2.07,0,2.345-0.138c0,0-1.931,0.967-2,1.863   c0,0,1.587-1.104,2.276-0.759c0,0,1.312,0.068,1.795-0.207c0,0-0.208,0.621-0.208,0.896c0,0,0.553-0.413,0.966-0.482   c0,0,2.071-0.483,2.623-0.967c0,0,4.209-0.689,4.829-0.62c0.622,0.069,6.763,1.312,6.624-0.69   c-0.138-2.001-0.345-3.864,0.139-4.484c0.482-0.621,0.688,2.346,0.688,3.312c0,0.967,1.863,7.591-13.66,6.693   c0,0-4.692,0.551-11.178-3.312s-13.938-4.762-16.283-4.69c-2.346,0.068-9.867,0.827-15.248,2.827   c-5.383,2.002-10.765,1.933-11.385,1.863c0,0,1.035,1.656,11.178-0.483c10.142-2.139,14.972-3.104,19.94-1.653   c4.967,1.446,14.835,6.76,17.042,7.38c2.207,0.623,12.765,3.38,19.664-0.827c0,0,4.104-1.547,4.605-8.765   c0.007-0.088,0.012-0.182,0.018-0.273c0,0,1.448-1.174,1.655-1.795s2.346-3.793,3.312-4.346c0.966-0.552,0.966-1.034,0.966-1.45   c0-0.413-0.207-1.654-0.07-2.139c0,0,0.276-0.345-0.412-0.413c-0.69-0.069-2.278-0.553-2.416-0.896c0,0,0.552-2.07,0.483-3.106   c-0.069-1.034,0.759,0.553,0.759,1.036c0,0.481,0.36-2.233-0.276-3.244c-0.636-1.008-0.137-3.312-0.552-4.761   c-0.414-1.448,1.141,2.19,1.191,2.718s-0.501-3.478-1.743-4.993c0,0,1.655,1.447,1.655,1.932c0,0.482-0.758-2.484-1.793-3.519   c-1.035-1.036-0.966-1.657-0.966-1.657s1.587,1.31,1.725,1.795c0.137,0.482-0.829-1.45-1.794-2.899   c-0.967-1.448-1.104-1.793-1.104-1.793s2.346,1.793,2.553,2.346c0.208,0.552-1.655-2.829-2.69-3.45   c-1.036-0.621-1.862-1.449-1.862-1.449s2.207,1.449,2.622,1.725c0.413,0.276-2.103-2.296-2.88-2.838   c-0.778-0.543-1.95-1.44-1.95-1.44s1.189,0.078,1.725,0.552c0.536,0.474-1.173-1.38-2.07-1.725   c-0.896-0.345,0.069-0.759,0.551-0.483c0.485,0.275-1.378-1.173-2.275-1.656s-1.449-0.759-1.449-0.759s3.104,1.242,3.312,1.449   c0.208,0.207-3.312-2.415-3.933-2.553c-0.62-0.137,1.555,0.258,1.951,0.404c0.396,0.148-3.952-2.06-4.573-2.198   c-0.621-0.139-0.552-0.69-0.552-0.69s2.554,0.414,3.035,0.69c0.484,0.276-5.587-2.484-6.208-2.484s1.311-0.207,1.654-0.138   c0.346,0.069-3.587-0.759-3.933-0.759c-0.345,0,1.795-0.345,1.795-0.345s-4.347-0.069-4.554-0.276   c-0.207-0.208-3.313-0.69-4.278-0.621c-0.966,0.068,1.587-0.483,1.932-0.415c0.346,0.07-4.277,0.346-5.175,0.622   c-0.896,0.275-1.241,0.069-1.241,0.069s1.518-0.759,1.862-0.759s-4.348,0-5.105,0.415c-0.76,0.413-5.037,0.759-5.727,0.966   s-1.103,0.345-1.103,0.345s1.517-0.898,2.068-0.967c0.553-0.069-5.104,1.38-5.519,1.794c-0.415,0.415-1.726,1.035-2.07,1.243   c-0.345,0.206-3.45,1.862-4.347,2.069c-0.897,0.208-5.037,1.726-7.314,1.381c0,0-0.494-2.16-1.48-3.27   c-0.057-0.064-0.116-0.125-0.175-0.18c-1.104-1.037-0.828-0.76-1.449-1.037c-0.621-0.275-1.794-0.896-2.277-0.414   C26.417,27.837,24.889,30.667,24.342,31.218z"/></g><g display="none"><path display="inline" d="M50.235,76.173c0.004,0.002,0.017,0.009,0.017,0.009S50.301,76.017,50.235,76.173z M52.759,84.166   c0.25-0.253,1.745-0.167,1.745-0.167c-0.83-1.081-4.652-0.499-5.4-0.747s-0.334-3.24,0.083-4.321   c0.415-1.081,0.665-1.745,0.914-2.409c0.068-0.186,0.109-0.289,0.135-0.349c-0.182-0.089-4.098-1.989-4.018-1.504   c0.19,1.143-0.852,4.845-1.435,6.09c-0.582,1.248-1.412,1.745-2.492,1.911c-1.081,0.167-2.576-0.332-4.071-0.25   c-1.496,0.084-2.077,1.164-1.663,0.998c0.416-0.166,0.665-0.085,0.915,0.082c0.248,0.168,1.163,1.08,1.163,1.08   c-3.905,0.084-4.404,0.914-4.404,0.914c-1.496,0.416-1.745,1.165-1.745,1.165c0.416-0.5,1.496-0.335,1.496-0.335   c0.249,1.082,5.566,0.335,5.566,0.335c-2.161,1.494-1.66,2.324-1.66,2.324c0.249-0.581,1.078-0.414,1.078-0.414   c0.915,1.329,3.49-0.499,5.816-1.58c2.326-1.079,5.565-1.411,6.978-1.495C53.177,85.411,52.508,84.415,52.759,84.166z    M64.694,89.814c0,0-1.771-0.221-2.657-0.442c-0.886-0.221-1.329-2.437-0.665-3.323c0.665-0.886,1.261-3.457,1.261-3.457   s-2.812,1.25-5.14-0.325c0.891,3.287-1.578,6.469-1.91,6.884c-0.332,0.416-2.988,0.332-5.315-0.083   c-2.326-0.416-3.242,0.747-3.242,0.747c1.082-0.248,1.911,0.498,1.911,0.498c-0.415,0.334,0.167,1.414,0.167,1.414   c-3.406,0.581-3.822,1.746-3.822,1.746c0.499-0.419,1.496,0,1.496,0c0.583,0.829,1.495,0.911,2.242,0.578   c0.749-0.33,4.487,0,4.487,0s-0.58,0.417-1.746,0.997c-1.163,0.582-0.995,2.078-0.995,2.078c0.084-0.581,0.638-0.223,2.188-0.223   c1.551,0,8.419-4.207,10.411-4.431c1.997-0.222,1.997-0.887,1.997-0.887c-0.667-1.992,2.434-1.771,2.434-1.771   C66.023,88.485,64.694,89.814,64.694,89.814z M16.205,22.852l0.665-4.068l-4.238-3.325l-1.412,0.082c0,0-4.985,1.994-3.489,8.307   C9.226,30.164,11.8,29.5,11.8,29.5l0.083-1.912C11.884,27.588,15.706,27.006,16.205,22.852z M89.953,34.207   c-3.769-5.097-9.087-1.551-9.087-1.551c-5.095-5.538-7.528,3.322-7.528,3.322c-6.205-3.986-13.737-6.424-21.715-7.309   c-7.974-0.889-19.051,3.322-19.051,3.322c-1.551-1.108-1.109-9.304-0.887-10.635c0.222-1.33,0.665-6.646-1.993-12.85   c-2.659-6.204-9.527-5.98-9.527-5.98c-3.434,0.027-4.126,0.552-6.952,1.715c-2.825,1.164-1.329,2.908-1.329,2.908   c-0.166-0.665,0.25-1.577,0.25-1.577c8.971-1.829,12.128,2.906,12.128,2.906c0.997-0.081,3.571,1.831,4.485,2.825   c0.915,0.999-0.414,4.072-1.993,7.229c-1.58,3.156-5.235,1.495-6.729,1.164c-1.495-0.333-3.156,2.243-3.156,2.243   c0.248,0.251,0.747,0.251,0.747,0.251c0.25,2.244-1.662,5.729-2.742,8.14c-1.08,2.41-0.913,6.73-1.162,9.885   c-0.249,3.161,0.582,5.901,0.831,6.567c0.249,0.663,1.246,1.992,1.329,2.74c0.083,0.748,0.25,1.496,0.581,1.745   c0.333,0.248,0.666,0.248,1.415,1.161c0.747,0.916,0.914,1.663,1.33,2.078c0.414,0.415,1.078,0.749,1.078,1.497   c0,0.746,0.416,0.913,0.832,0.58c0.415-0.332,1.246,0.251,1.745,0.832c0.498,0.579,0.58,0.167,0.664,1.827   c0.083,1.659,0.582-0.167,1.163,0.747c0.582,0.912,4.569,6.396,4.985,7.312c0.417,0.913,0.831,0.166,3.158,1.827   c2.326,1.661,7.725,3.903,8.639,4.072c0.916,0.164,4.239-0.169,4.653,0.913c0,0,1.995-0.085,2.409,0.497   c0.415,0.582,0.665,0.915,2.16,0.666c0.901-0.15,3.075,2.906,4.238,4.404c1.161,1.493,2.243,2.074,2.243,2.074   c-0.082-0.665,2.326,0.749,2.824,0.833c0.497,0.082,2.936-0.969,2.936-0.969c1.107-0.665,1.33-3.104,1.33-3.104   c2.656,0.444,6.204-1.771,6.204-1.771c1.771,0.886,2.435-0.444,2.435-0.444c-1.33-2.215,2.438-2.657,2.438-2.657   c2.215-0.223,1.993-2.883,1.993-2.883c1.108,0,2.438-0.886,2.879-2.212c0.444-1.331,1.773-2.66,1.773-2.66   c1.551-4.434,1.551,0,1.551,0c1.108-0.222,0.887-3.768,0.887-3.768c0.887,0,1.106-2.437,1.106-2.437   c-1.106-1.328,0.887-1.993,0.887-1.993c-1.33,0-1.771-2.214-1.771-2.214c0.885,0.442-0.665-3.987,0-3.769   c0.665,0.224,0.885-1.107,0.885-1.107l1.554-0.443c-1.108-0.663-2.66-4.431-2.66-4.431c1.993-0.885,3.769,2.439,5.981,1.775   c2.216-0.667,0.665-7.313,0.665-7.313S93.72,39.304,89.953,34.207z M63.31,58.246c0,0-0.249,1.743-1.412,2.075   c0,0,0.084,1.246-0.583,1.329c0,0-0.081,1.746-0.744,1.912c0,0-1.248,1.994-2.827,0.831c0,0-0.662,2.991-2.905,1.494   c0,0-2.162,1.162-3.741-0.331c-1.577-1.498-5.233-5.735-6.147-6.647c-0.914-0.915-4.652-5.314-5.4-6.978   c-0.747-1.663-2.409-6.066,0.083-10.221c0,0,0.266,2.66,0.68,4.489c0.416,1.827,0.5,4.32,1.248,5.648   c0.747,1.33,3.057,4.472,4.221,5.384c1.164,0.915,4.654,5.816,5.732,6.231c1.082,0.415,3.076,1.745,2.908,0.333   c0,0,3.24,2.077,2.242-1.746c0,0,3.158,1.911,3.158-0.166c0,0,1.08,0.083,0.663-1.909c0,0,0.998-0.084,0.83-1.33   c0,0,1.248-0.251,1.082-1.745c0,0,1.08,0.845,0-1.147c-1.082-1.994-1.163-1.162-1.661-3.073s-2.742-2.825-2.742-2.825   s3.673-0.498,5,3.324C64.323,56.999,64.391,56.916,63.31,58.246z M89.191,39.791c0.735,2.349,0.516,6.211-0.221,6.514   c-0.736,0.304-3.166-1.514-3.752-1.895c-0.59-0.378-1.916,0.381-1.916,0.381l1.841,3.937c0,0-0.588-0.452-0.588,0.303   c0,0.759-0.812,1.212-0.812,1.212l-0.071-0.755c0,0-0.517-1.061-0.517-2.047c0-0.983-0.811-2.118-1.106-3.331   c-0.294-1.212-2.132-2.044-2.5-2.575s-0.146-1.513-0.368-1.666c-0.222-0.15-0.957,0.227-1.253-0.378   c-0.293-0.605,0.371-0.909,0.296-1.212c-0.071-0.302-1.251-0.682-1.691-0.756c-0.441-0.075-1.842-1.058-1.842-1.058   c0.589-2.882,2.282-4.395,3.237-4.47c0.959-0.077,2.799,1.817,2.799,1.817c1.028-0.607,2.429-1.439,4.637-1.136   c2.207,0.303,4.562,4.921,4.783,5.754C90.37,39.261,89.191,39.791,89.191,39.791z"/></g><g display="none"><path display="inline" d="M62.765,54.896c-0.247-3.712,2.228-19.551,0-25.491C60.538,23.466,52.123,0.698,38.017,3.173   C23.911,5.648,25.396,31.138,25.643,35.84s4.95,16.582,8.415,20.541c3.464,3.96,4.702,5.939,5.197,9.652   c0.495,3.712,1.237,16.334,7.672,24.005c0,0,3.217,6.683,11.136,6.435c7.92-0.247,13.611-7.424,13.859-14.105   C72.17,75.685,63.013,58.608,62.765,54.896z M69.277,78.824c-0.209-0.347-2.354-1.637-2.354-1.637   c0.482-0.766,1.638-1.02,1.638-1.02L69.277,78.824z M68.292,74.299l0.103,0.996l-4.228,2.948l-1.241-0.027   c-0.016-0.715-1.954-5.665-1.954-5.665s3.898,0.646,5.292,0.833C67.656,73.57,68.292,74.299,68.292,74.299z M67.865,72.582   c0,0-2.671-1.334-3.127-1.81l1.978-0.918C66.716,69.854,67.533,72.17,67.865,72.582z M66.21,68.88l-4.191,2.731l-1.43,0.03   c0,0-1.064-3.781-4.645-4.731c-3.581-0.95-6.88-1.987-8.071-1.517c-1.19,0.47,0.198,3.637,0.523,4.358l-1.913-0.539l-2.386-4.401   c0,0,0.086-1.054,0.858-0.882c0.772,0.174,2.549,1.27,6.446,0.581c0,0,13.528,1.888,13.89,2.393   C65.652,67.408,66.21,68.88,66.21,68.88z M45.659,76.864l8.259,1.459l5.836,5.597c0,0-4.093-0.278-5.421-0.588   C53.004,83.022,45.659,76.864,45.659,76.864z M51.546,82.959c0,0-1.587,0.182-2.635-0.215l0.043-0.526L51.546,82.959z    M39.817,25.96l0.4,4.294l-4.235,1.923l-0.844,0.26l-0.242-4.446L39.817,25.96z M34.691,24.665c0,0,0.409-3.003,0.387-3.407   c-0.022-0.404,0.483-0.766,0.483-0.766s3.226-1.201,3.694-1.346c0.47-0.145,0.456,0.476,0.456,0.476l-0.091,4.035   c0,0-3.976,1.432-4.351,1.548S34.691,24.665,34.691,24.665z M36.349,11.722l2.013-1.135c0,0,1.047,0.396,1.221,0.959   s0.254,2.49,0.254,2.49S38.018,13.467,36.349,11.722z M36.012,33.607c0.657-0.203,4.336-2.263,4.336-2.263l0.992,4.215   c0,0,0.232,0.75-0.302,1.018c-0.534,0.268-3.644,1.844-3.644,1.844s-0.938,0.29-1.112-0.273s-0.818-3.652-0.818-3.652   S35.355,33.81,36.012,33.607z M58.112,38.193c-0.505,0.361,0.353,2.699,0.387,3.031s1.313-0.405,1.313-0.405l-0.094-3.19   l1.125-0.347l-0.204,3.556c0,0-1.51,0.877-2.029,0.969c-0.52,0.092-0.747-1.756-0.95-2.857c-0.203-1.102,0.957-1.117,0.957-1.117   C58.607,38.245,58.617,37.832,58.112,38.193z M59.181,38.548l0.184,1.929l-0.562,0.174l-0.454-1.915L59.181,38.548z M60.473,42.293   l-8.016,4.322l-1.654-1.031l0.946-0.6c0,0,0.628,1.039,1.696,0.504C54.513,44.954,60.473,42.293,60.473,42.293z M56.551,47.784   c-1,1.199-3.422-0.657-3.422-0.657c0.615-0.669,5.906-3.055,5.906-3.055s0.573,1.193,0.353,1.809   c-0.221,0.616-4.483,1.452-4.483,1.452C55.193,48.271,56.551,47.784,56.551,47.784z M59.837,60.88l-4.949,3.273   c0,0-1.595-0.843-1.394-1.521S55.99,60.731,59.837,60.88z M48.681,35.041c0,0,1.28,3.817,1.302,4.221   c0.022,0.404-2.958,1.734-3.239,1.821s-2.651-3.6-2.651-3.6L48.681,35.041z M43.21,35.291l-0.949-3.406l-0.124-1.4   c0,0,3.414-1.258,4.135-1.583c0.721-0.326,1.111,0.273,1.111,0.273s0.564,2.497,0.738,3.06s-0.359,0.831-0.359,0.831L43.21,35.291z    M50.49,41.572c-0.043,0.527-1.393,1.148-1.393,1.148s-0.758,0.542-0.996,0.102C47.863,42.382,50.49,41.572,50.49,41.572z    M51.083,42.827l0.312,1.343l-1.292,0.809l-1.278-1.147C50.469,42.503,51.083,42.827,51.083,42.827z M56.495,42.39   c-0.1,0.339-1.86,1.293-2.518,1.496c-0.656,0.202-0.802-0.267-0.802-0.267l-0.773-2.843c0.007-0.311,1.832-1.387,2.583-1.619   c0.75-0.232,0.896,0.237,0.896,0.237S56.597,42.051,56.495,42.39z M51.649,38.337l-1.093-3.875c0,0,2.698-1.244,3.168-1.388   c0.469-0.145,0.996-0.102,0.996-0.102l0.594,3.926C54.774,37.476,51.649,38.337,51.649,38.337z M50.461,31.82   c-0.657,0.203-0.772-0.172-0.772-0.172l-0.725-3.681c0,0,2.85-1.085,3.507-1.287c0.656-0.203,0.707,0.295,0.707,0.295l0.854,3.436   C54.032,30.41,51.118,31.618,50.461,31.82z M49.121,26.48c0,0-0.844,0.26-1.047-0.396c-0.202-0.657-0.68-2.873-0.68-2.873   l4.12-0.963l1.113,2.944L49.121,26.48z M46.389,20.953l-1.359-3.074c0,0,0.072-0.433,0.447-0.549   c0.375-0.116,3.37-0.731,3.37-0.731l1.576,3.109L46.389,20.953z M46.514,23.688c0,0,0.196,2.303,0.218,2.707   c0.022,0.404-0.302,1.018-0.302,1.018s-3.203,1.605-3.86,1.808c-0.656,0.203-0.794-0.577-0.794-0.577s-0.198-3.638,0.271-3.783   C42.516,24.717,46.514,23.688,46.514,23.688z M40.405,10.881c0.13-0.246,0.771-1.163,0.771-1.163l2.085-0.233l-1.866,4.275   C41.396,13.761,40.275,11.127,40.405,10.881z M37.685,40.693c0,0,4.055-2.175,4.365-2.168c0.311,0.007,1.612,4.229,1.612,4.229   l-4.458,2.197C39.204,44.951,37.425,41.185,37.685,40.693z M44.43,44.572l-0.072,0.433c0,0-2.107,1.164-2.547,1.402   c-0.44,0.238-1.35,0.622-1.35,0.622C40.258,46.373,44.43,44.572,44.43,44.572z M44.618,45.849c0,0,0.34,1.437,0.087,1.617   c-0.252,0.18-3.146,1.792-3.146,1.792l-0.657-1.132L44.618,45.849z M44.555,48.643l-1.441,3.321c0,0-0.557-1.472-0.982-1.854   L44.555,48.643z M42.877,63.853c0.498-0.052,1.677,2.771,1.677,2.771l-1.406,1.77l-0.584-0.231   C42.563,68.161,42.379,63.903,42.877,63.853z M49.083,70.979c0,0,3.462,6.227,3.802,6.327l-3.43-0.791l-5.469-6.737L49.083,70.979z    M52.951,70.196c0.505-0.361,2.83,1.182,3.431,2.127c0.6,0.945,3.253,7.216,3.253,7.216s-3.64-2.474-5.013-4.927   C53.248,72.159,52.446,70.558,52.951,70.196z M62.271,61.773c0.665,0.822,2.486,4.062,2.486,4.062s-5.417-3.568-5.979-3.396   l2.33-1.438C61.107,61.002,61.605,60.951,62.271,61.773z M60.886,34.974c0,0-3.037,1.143-3.507,1.288   c-0.469,0.145-0.483-0.57-0.483-0.57l-0.667-3.493l4.099-1.368C60.667,32.268,60.886,34.974,60.886,34.974z M59.604,28.486   c0,0-1.812,0.456-2.937,0.804c-1.126,0.347-1.206-0.245-1.206-0.245l-0.558-2.808c-0.022-0.404,3.723-1.251,3.723-1.251   L59.604,28.486z M58.034,23.73c0,0-2.562,0.688-3.126,0.861c-0.562,0.173-0.765-0.483-0.765-0.483l-0.724-2.346l3.283-1.013   L58.034,23.73z M53.277,15.643l2.01,3.182l-3.118,0.551l-1.417-3.262C50.752,16.114,52.505,15.47,53.277,15.643z M52.411,14.164   c-0.462-0.166-6.531,1.81-7.217,1.918c-0.686,0.109-1.501,0.463-1.731,1.048s1.144,4.373,1.144,4.373   c-0.657,0.203-2.857,1.396-2.857,1.396c-0.067-2.548,1.496-7.14,1.496-7.14c2.101,0.482,8.682-2.165,8.682-2.165L52.411,14.164z    M46.127,9.116l1.155-0.253l0.643,0.418c-0.845,0.26-2.245,0.384-2.245,0.384L46.127,9.116z M45.298,10.091   c0,0,0.679,0.201,1.141,0.367c0.463,0.166,2.281-0.601,2.281-0.601l1.062,1.111c0,0-3.161,1.078-3.847,1.187   c-0.686,0.108-1.328-0.31-1.328-0.31L45.298,10.091z M45.632,13.172c1.271,0.122,4.72-1.353,4.72-1.353l1.004,0.923   c0,0-5.693,1.859-6.596,1.932c-0.902,0.073-1.205-0.244-1.205-0.244l0.851-1.906C44.405,12.524,44.361,13.051,45.632,13.172z    M44.473,6.75l-0.634,1.942l-2.144,0.045l1.507-2.109L44.473,6.75z M39.044,6.472c0.145,0.469,0.831,1.696,0.232,2.086   s-0.975-0.83-0.975-0.83L37.81,6.134C37.81,6.134,38.9,6.003,39.044,6.472z M36.858,7.044c0,0,0.801,0.267,1.126,0.988   c0.326,0.722,0.81,1.292,1.279,1.147c0.469-0.145,1.833-0.052,0.784-3.119l2.137,0.266c0,0-1.369,2.888-2.56,3.358   c-1.191,0.47-2.57-0.337-2.57-0.337l-1.899-1.161L36.858,7.044z M34.391,9.038l2.859,1.275l-1.609,1.113   c0,0-0.513-0.664-1.062-1.111C34.03,9.869,34.391,9.038,34.391,9.038z M33.231,12.272c0.657-0.203,1.451,0.375,1.451,0.375   s-0.202,0.678-0.83,0.975c-0.627,0.297-2.374,0.63-2.374,0.63S32.575,12.476,33.231,12.272z M31.277,14.93   c0,0,1.646,0.006,2.303-0.196c0.656-0.203,1.45-0.961,1.681-1.546c0.23-0.585,0.578,0.541,0.578,0.541l0.694,0.917   c0,0-0.765,0.852-2.013,1.135c-1.249,0.282-3.991,0.718-3.991,0.718L31.277,14.93z M30.225,17.515c0,0,2.858-0.06,3.609-0.292   s3.319-1.229,3.305-1.944l1.126,0.988c0,0-0.173,0.772-0.736,0.946c-0.562,0.173-7.267,1.42-7.462,1.789L30.225,17.515z    M29.765,20.021c0,0,0.786-0.448,1.718-0.427c0.931,0.021,5.146-0.971,5.585-1.21c0.44-0.238,1.926-1.416,1.926-1.416l0.788,0.887   c0,0-4.315,1.332-5.968,1.636s-3.962,0.811-4.063,1.151L29.765,20.021z M29.276,22.431l4.128-1.273l-0.321,4.62l-4.705,2.068   L29.276,22.431z M28.134,30.386l4.792-1.787l0.458,4.482l-5.31,2.769C27.892,34.263,28.134,30.386,28.134,30.386z M28.53,37.662   l5.094-2.805c0,0,0.267,0.534,0.225,1.061c-0.043,0.527,0.919,3.312,0.919,3.312s-0.007,0.31-0.577,0.794s-4.415,3.006-4.415,3.006   S28.545,38.376,28.53,37.662z M30.867,45.571c0,0,4.177-3.446,5.05-3.613l1.8,4.171l-4.646,3.591   C33.072,49.72,31.012,46.04,30.867,45.571z M41.456,55.249c-0.289,0.397-0.657,0.203-1.054-0.085   c-0.397-0.289-3.119-0.784-3.552-0.856s-2.817-3.138-2.817-3.138l3.859-3.143c0,0,0.621,0.014,0.708,0.295   c0.087,0.282-1.991,1.539-2.337,1.748c-0.347,0.21-0.642,0.918-0.216,1.301c0.427,0.382,3.125-2.197,3.125-2.197l0.78,1.197   c0,0-0.916,0.694-1.197,0.78c-0.282,0.087-1.162,0.564-0.995,1.438c0.167,0.873,1.918-1.105,2.359-1.345   c0.44-0.238,0.816,0.981,1.019,1.638c0.203,0.657,1.026,1.328,1.026,1.328S41.745,54.852,41.456,55.249z M42.412,69.338   l0.866,0.144l2.587,3.724c-0.311-0.008-1.594,1.826-1.594,1.826l-1.054-0.086L42.412,69.338z M43.226,75.971   c0,0,0.96,0.115,1.264,0.433s4.103,3.974,4.103,3.974l-1.232,2.333l-2.382-0.396L43.226,75.971z M45.6,83.664   c0.549,0.446,15.158,1.179,15.158,1.179s3.084,2.337,3.503,3.029s0.283,1.248,0.283,1.248l-4.201,0.371   c0,0-7.834-3.747-8.412-4.288c-0.578-0.54-1.697-0.504-1.697-0.504l3.582,2.285c-0.253,0.182-1.65,2.976-1.65,2.976l-2.923,0.183   C48.483,89.349,45.6,83.664,45.6,83.664z M57.016,89.696c0,0-2.865,0.37-3.457,0.45l0.302-1.018L57.016,89.696z M58.274,94.445   c-4.013,0.312-8.426-3.668-8.426-3.668c4.519,0.661,9.758-0.339,9.758-0.339l3.849,1.483   C63.455,91.922,62.287,94.132,58.274,94.445z M64.184,91.286l-2.714-0.807c0,0,3.089-0.645,3.11-0.24   C64.603,90.644,64.184,91.286,64.184,91.286z M68.697,85.271c-0.259,0.491-1.247,1.617-2.265,1.315   c-1.018-0.303-1.481-1.804-1.481-1.804l3.039,0.192C67.99,84.975,68.958,84.779,68.697,85.271z M69.072,83.819l-0.946-0.736   l1.161-0.563L69.072,83.819z M65.369,84.14c-0.375,0.116-0.743-0.079-0.888-0.548c-0.145-0.47-1.419-4.597-1.419-4.597l6.317,0.825   c0,0,0.239,1.774-0.042,1.862C69.057,81.77,65.745,84.023,65.369,84.14z"/></g><g display="none"><path display="inline" d="M50.175,96.885c0,0,4.454-0.134,4.971-3.718c0.518-3.587-3.03-49.196-3.034-50.749   c-0.008-1.554,0.403-5.855,2.095-8.129c1.688-2.274,2.852-3.234,2.736-6.1c-0.117-2.866-1.041-25.078-1.783-25.075   s0.291,23.287-1.726,23.295c-2.014,0.005-0.397-23.169-1.668-23.165c-1.273,0.006,0.504,23.408-1.829,23.416h0.11   c-2.333,0.006-0.715-23.408-1.987-23.404c-1.272,0.006,0.503,23.169-1.514,23.177c-2.015,0.006-1.137-23.285-1.879-23.284   c-0.743,0.003-1.518,22.221-1.613,25.087c-0.096,2.867,1.074,3.819,2.778,6.081c1.707,2.265,2.144,6.562,2.148,8.114   c0.006,1.553-3.235,47.187-2.691,50.768c0.542,3.584,4.995,3.688,4.995,3.688L50.175,96.885z"/></g><g><path d="M96.229,32.846c-1.522-2.027-4.056-2.027-6.084-3.549c-2.027-1.52,0-5.068-3.043-5.068s-4.057-0.505-5.575-3.042   c-1.521-2.538-3.549-3.549-6.592-3.549c-3.041,0-11.407-6.087-15.97-6.087s-3.803-2.534-8.873-2.534h-0.186   c-5.072,0-4.311,2.534-8.873,2.534c-4.563,0-12.928,6.087-15.969,6.087c-3.042,0-5.07,1.011-6.591,3.549   c-1.521,2.537-2.535,3.042-5.578,3.042c-3.041,0-1.014,3.549-3.041,5.068c-2.028,1.521-4.562,1.521-6.083,3.549   c-1.521,2.027-2.535,13.687,1.521,14.191c4.055,0.51,7.604,3.046,10.14,3.552c2.535,0.505,7.603,0.505,11.154,1.013   c3.547,0.505,7.096,3.548,11.152,2.028c4.056-1.523,8.62,0,8.62,0c1.015,6.593,0.507,10.648,0.507,10.648   c-15.844,0-15.716,5.237-15.716,5.237c0,3.931,15.97,4.014,15.97,4.014c0,14.575-3.519,16.829-5.088,17.11h4.115   c0.703-1.028,2.471-4.798,2.471-16.731h2.752c0,11.934,1.768,15.703,2.47,16.731h4.131c-1.568-0.281-5.086-2.535-5.086-17.11   c0,0,15.953,0.254,15.953-3.843c0,0,0.143-5.408-15.701-5.408c0,0-0.509-4.056,0.505-10.648c0,0,4.564-1.523,8.622,0   c4.055,1.52,7.604-1.523,11.151-2.028c3.549-0.508,8.619-0.508,11.155-1.013c2.534-0.506,6.083-3.042,10.139-3.552   C98.767,46.532,97.749,34.873,96.229,32.846z M53.2,66.844l-0.155-1.383c0,0,12.956,0.922,12.956,3.688s-12.491,2.767-15.145,2.767   h-1.562c-2.654,0-15.143,0-15.143-2.767s12.958-3.688,12.958-3.688l-0.158,1.383c0,0-4.372-0.308-4.372,1.075   c0,1.386,5.309,1.074,7.183,1.074c1.875,0,7.182,0.312,7.182-0.919S53.2,66.844,53.2,66.844z M51.448,67.992h-2.913   c0-23.149-2.913-26.197-2.913-26.197s3.885-1.176,8.74,0C54.362,41.795,51.448,44.674,51.448,67.992z M86.92,47.716   c-3.889,2.199-6.76,2.199-8.449,1.693c-1.691-0.509-7.271,0.503-9.806,2.026c-3.485,2.095-11.491-0.679-11.491-0.679   c0-3.209,1.691-4.731,1.691-4.731s12-1.521,12-3.551c0-2.027-13.185-2.532-20.789-2.532c-7.605,0-21.293,1.352-21.293,3.551   c0,2.195,14.195,2.363,14.195,2.363c0.845,1.181,1.183,5.237,1.183,5.237c-0.676-0.505-8.281,0.847-10.647,1.185   c-2.366,0.338-4.224-1.521-7.266-2.535c-3.042-1.014-8.451-0.676-10.816-1.014c-2.366-0.337-5.239-1.183-6.929-3.041   c-1.69-1.86-2.196-3.042,2.535-3.381c4.731-0.339,2.196-1.521,4.394-2.194c2.197-0.68,6.928-1.354,9.125-2.368   c2.197-1.015,1.014-3.551,3.211-3.717c2.197-0.169,5.407-0.507,7.267-1.858c1.859-1.352,5.07-0.847,8.111-1.352   c3.043-0.507,5.07-0.167,5.916,1.014c0.845,1.184,4.057,0.506,5.916,0.338c1.86-0.168,5.746,1.013,7.099,1.858   c1.351,0.845,3.717,1.857,6.254,1.012c2.535-0.844,6.421-0.167,7.602-0.167c1.184,0,2.536,1.521,5.071,1.183   c2.534-0.338,4.228-3.55,6.929-1.016c2.704,2.536,7.771,5.751,7.771,5.751C95.702,44.847,90.806,45.519,86.92,47.716z"/></g><text x="0" y="115" fill="#000000" font-size="5px" font-weight="bold" font-family="'Helvetica Neue', Helvetica, Arial-Unicode, Arial, Sans-serif">Created by Studio GLD</text><text x="0" y="120" fill="#000000" font-size="5px" font-weight="bold" font-family="'Helvetica Neue', Helvetica, Arial-Unicode, Arial, Sans-serif">from the Noun Project</text></svg>