<svg xmlns="http://www.w3.org/2000/svg" xmlns:xlink="http://www.w3.org/1999/xlink" version="1.1" x="0px" y="0px" viewBox="0 0 100 125" enable-background="new 0 0 100 100" xml:space="preserve"><g><path fill="#000000" stroke="#FFFFFF" stroke-width="0.078" stroke-miterlimit="10" d="M49.591,2c-8.238,0,0,21.335,0,21.335   S57.829,2,49.591,2z"/><path fill="#000000" stroke="#FFFFFF" stroke-width="0.078" stroke-miterlimit="10" d="M15.801,15.921   c-5.827,5.824,15.085,15.086,15.085,15.086S21.625,10.097,15.801,15.921z"/><path fill="#000000" stroke="#FFFFFF" stroke-width="0.078" stroke-miterlimit="10" d="M1.75,49.658c0,8.239,21.335,0,21.335,0   S1.75,41.42,1.75,49.658z"/><path fill="#000000" stroke="#FFFFFF" stroke-width="0.078" stroke-miterlimit="10" d="M15.671,83.45   c5.825,5.826,15.086-15.086,15.086-15.086S9.847,77.624,15.671,83.45z"/><path fill="#000000" stroke="#FFFFFF" stroke-width="0.078" stroke-miterlimit="10" d="M49.409,97.5c8.238,0,0-21.335,0-21.335   S41.17,97.5,49.409,97.5z"/><path fill="#000000" stroke="#FFFFFF" stroke-width="0.078" stroke-miterlimit="10" d="M68.115,68.494   c0,0,9.26,20.91,15.084,15.084C89.026,77.754,68.115,68.494,68.115,68.494z"/><path fill="#000000" stroke="#FFFFFF" stroke-width="0.078" stroke-miterlimit="10" d="M75.914,49.842c0,0,21.335,8.238,21.335,0   C97.249,41.603,75.914,49.842,75.914,49.842z"/><path fill="#000000" stroke="#FFFFFF" stroke-width="0.078" stroke-miterlimit="10" d="M83.329,16.051   c-5.825-5.827-15.086,15.085-15.086,15.085S89.153,21.875,83.329,16.051z"/><circle fill="#000000" stroke="#FFFFFF" stroke-width="0.1036" stroke-miterlimit="10" cx="49.591" cy="49.814" r="18.647"/></g></svg>