<svg xmlns="http://www.w3.org/2000/svg" xmlns:xlink="http://www.w3.org/1999/xlink" version="1.1" x="0px" y="0px" viewBox="0 0 128 160" style="enable-background:new 0 0 128 128;" xml:space="preserve"><style type="text/css">
	.st0{display:none;}
	.st1{display:inline;}
	.st2{fill:none;stroke:#000000;stroke-width:0.1;stroke-miterlimit:10;}
	.st3{fill:none;}
</style><g class="st0"><g class="st1"><rect class="st2" width="128" height="128"/><line class="st2" x1="0" y1="124" x2="128" y2="124"/><line class="st2" x1="0" y1="120" x2="128" y2="120"/><line class="st2" x1="0" y1="116" x2="128" y2="116"/><line class="st2" x1="0" y1="112" x2="128" y2="112"/><line class="st2" x1="0" y1="108" x2="128" y2="108"/><line class="st2" x1="0" y1="104" x2="128" y2="104"/><line class="st2" x1="0" y1="100" x2="128" y2="100"/><line class="st2" x1="0" y1="96" x2="128" y2="96"/><line class="st2" x1="0" y1="92" x2="128" y2="92"/><line class="st2" x1="0" y1="88" x2="128" y2="88"/><line class="st2" x1="0" y1="84" x2="128" y2="84"/><line class="st2" x1="0" y1="80" x2="128" y2="80"/><line class="st2" x1="0" y1="76" x2="128" y2="76"/><line class="st2" x1="0" y1="72" x2="128" y2="72"/><line class="st2" x1="0" y1="68" x2="128" y2="68"/><line class="st2" x1="0" y1="64" x2="128" y2="64"/><line class="st2" x1="0" y1="60" x2="128" y2="60"/><line class="st2" x1="0" y1="56" x2="128" y2="56"/><line class="st2" x1="0" y1="52" x2="128" y2="52"/><line class="st2" x1="0" y1="48" x2="128" y2="48"/><line class="st2" x1="0" y1="44" x2="128" y2="44"/><line class="st2" x1="0" y1="40" x2="128" y2="40"/><line class="st2" x1="0" y1="36" x2="128" y2="36"/><line class="st2" x1="0" y1="32" x2="128" y2="32"/><line class="st2" x1="0" y1="28" x2="128" y2="28"/><line class="st2" x1="0" y1="24" x2="128" y2="24"/><line class="st2" x1="0" y1="20" x2="128" y2="20"/><line class="st2" x1="0" y1="16" x2="128" y2="16"/><line class="st2" x1="0" y1="12" x2="128" y2="12"/><line class="st2" x1="0" y1="8" x2="128" y2="8"/><line class="st2" x1="0" y1="4" x2="128" y2="4"/><line class="st2" x1="124" y1="0" x2="124" y2="128"/><line class="st2" x1="120" y1="0" x2="120" y2="128"/><line class="st2" x1="116" y1="0" x2="116" y2="128"/><line class="st2" x1="112" y1="0" x2="112" y2="128"/><line class="st2" x1="108" y1="0" x2="108" y2="128"/><line class="st2" x1="104" y1="0" x2="104" y2="128"/><line class="st2" x1="100" y1="0" x2="100" y2="128"/><line class="st2" x1="96" y1="0" x2="96" y2="128"/><line class="st2" x1="92" y1="0" x2="92" y2="128"/><line class="st2" x1="88" y1="0" x2="88" y2="128"/><line class="st2" x1="84" y1="0" x2="84" y2="128"/><line class="st2" x1="80" y1="0" x2="80" y2="128"/><line class="st2" x1="76" y1="0" x2="76" y2="128"/><line class="st2" x1="72" y1="0" x2="72" y2="128"/><line class="st2" x1="68" y1="0" x2="68" y2="128"/><line class="st2" x1="64" y1="0" x2="64" y2="128"/><line class="st2" x1="60" y1="0" x2="60" y2="128"/><line class="st2" x1="56" y1="0" x2="56" y2="128"/><line class="st2" x1="52" y1="0" x2="52" y2="128"/><line class="st2" x1="48" y1="0" x2="48" y2="128"/><line class="st2" x1="44" y1="0" x2="44" y2="128"/><line class="st2" x1="40" y1="0" x2="40" y2="128"/><line class="st2" x1="36" y1="0" x2="36" y2="128"/><line class="st2" x1="32" y1="0" x2="32" y2="128"/><line class="st2" x1="28" y1="0" x2="28" y2="128"/><line class="st2" x1="24" y1="0" x2="24" y2="128"/><line class="st2" x1="20" y1="0" x2="20" y2="128"/><line class="st2" x1="16" y1="0" x2="16" y2="128"/><line class="st2" x1="12" y1="0" x2="12" y2="128"/><line class="st2" x1="8" y1="0" x2="8" y2="128"/><line class="st2" x1="4" y1="0" x2="4" y2="128"/></g></g><g><g><path class="st3" d="M25.8,51.2c2.8-0.6,5.4-1.7,7.8-3.2c0.7-0.4,1.6-0.2,2.1,0.5c0.4,0.7,0.2,1.6-0.5,2.1    c-2.7,1.7-5.7,2.9-8.8,3.6c-1.8,0.4-3.6,0.6-5.4,0.6c5.5,2.8,12.1,3,17.7,0.2c5.6-2.8,9.5-8.2,10.5-14.4c-2.3,0.5-4.6,0.8-7,1    c-4.5,0.4-7.8,0.2-10.4,0.1c-3.2-0.2-5.1-0.3-7.1,0.7c-2.7,1.4-4.6,4.5-5.8,9.3C21.3,51.8,23.6,51.6,25.8,51.2z"/><path d="M100.1,43.7l-0.2,0c-0.3,0-0.6-0.1-0.9-0.2c-0.4-0.1-0.8-0.2-1.2-0.2c-0.8-0.1-1.6,0.5-1.7,1.3c-0.1,0.8,0.5,1.6,1.3,1.7    c0.3,0,0.6,0.1,0.9,0.2c0.4,0.1,0.8,0.2,1.1,0.2c4.6,1.1,9.7,4.7,10,9.8c0.2,4.5-2.5,8.8-7.4,11.4c-10.5,5.6-46.7,4.6-66.3,3.1    c-0.8-0.1-1.5,0.6-1.6,1.4c-0.1,0.8,0.6,1.5,1.4,1.6c2.8,0.2,16.5,1.2,31.2,1.2c14.5,0,30-1,36.8-4.6c5.9-3.2,9.3-8.5,9-14.2    C112.1,49.6,105.8,45.1,100.1,43.7z"/><path d="M79.6,110.5c-0.3,0-0.6,0.1-1,0.2c-0.3,0.1-0.6,0.1-0.9,0.2c-0.8,0.1-1.4,0.8-1.3,1.7c0.1,0.8,0.7,1.3,1.5,1.3    c0.1,0,0.1,0,0.2,0c0.3,0,0.7-0.1,1.1-0.2c0.3-0.1,0.6-0.1,0.9-0.2l0.2,0c5.3-1.3,11.2-5.5,11.5-11.7c0.3-5.4-2.8-10.3-8.4-13.3    c-13.3-7.1-65.4-3.2-65.9-3.2c-0.8,0.1-1.4,0.8-1.4,1.6c0.1,0.8,0.8,1.4,1.6,1.4c14.3-1.1,53.8-2.7,64.2,2.8    c4.5,2.4,7,6.3,6.8,10.5C88.5,106.3,83.8,109.5,79.6,110.5z"/><path d="M78.6,58.4c-2.3,1.2-10.9,1.3-17.8,0.7c-0.8-0.1-1.5,0.5-1.6,1.4c-0.1,0.8,0.5,1.5,1.4,1.6c0.8,0.1,4.5,0.3,8.6,0.3    c4.2,0,8.8-0.3,10.9-1.4c2-1.1,3.2-3,3-5c-0.1-2.4-2.2-4-4.3-4.5l-0.2,0c-0.1,0-0.1,0-0.2,0c-0.1,0-0.3-0.1-0.4-0.1    c-0.8-0.1-1.6,0.4-1.7,1.3c-0.1,0.8,0.4,1.6,1.3,1.7l0.1,0c0.1,0,0.2,0.1,0.4,0.1c0.9,0.2,1.9,0.9,1.9,1.7    C80.1,57.5,78.9,58.2,78.6,58.4z"/><path d="M30.2,59.9c3.4,0,6.8-0.8,9.9-2.3C47.3,54,52,46.8,52.5,38.7l0.1-2l-2,0.5c-2.8,0.7-5.7,1.2-8.6,1.4    c-4.3,0.4-7.4,0.2-10,0.1c-3.3-0.2-5.9-0.4-8.6,1c-4,2.1-6.7,6.8-8,14l-0.2,0.9l0.7,0.6C20.2,58.2,25.2,59.9,30.2,59.9z     M24.9,42.3c2-1,3.9-0.9,7.1-0.7c2.6,0.2,5.9,0.4,10.4-0.1c2.3-0.2,4.7-0.6,7-1c-1,6.2-4.9,11.6-10.5,14.4    c-5.6,2.8-12.2,2.6-17.7-0.2c1.8,0,3.6-0.2,5.4-0.6c3.1-0.7,6.1-1.9,8.8-3.6c0.7-0.4,0.9-1.4,0.5-2.1c-0.4-0.7-1.4-0.9-2.1-0.5    c-2.4,1.5-5,2.6-7.8,3.2c-2.2,0.5-4.5,0.6-6.8,0.4C20.2,46.8,22.2,43.7,24.9,42.3z"/><path d="M49.1,100.8l-5.1,4.6c-0.6,0.6-0.7,1.5-0.1,2.1c0.3,0.3,0.7,0.5,1.1,0.5c0.4,0,0.7-0.1,1-0.4l5.1-4.6    c0.6-0.6,0.7-1.5,0.1-2.1C50.7,100.3,49.7,100.2,49.1,100.8z"/><path d="M84.2,36.3l5.1-4.6c0.6-0.6,0.7-1.5,0.1-2.1c-0.6-0.6-1.5-0.7-2.1-0.1l-5.1,4.6c-0.6,0.6-0.7,1.5-0.1,2.1    c0.3,0.3,0.7,0.5,1.1,0.5C83.5,36.7,83.9,36.5,84.2,36.3z"/></g></g></svg>