<svg xmlns="http://www.w3.org/2000/svg" xmlns:xlink="http://www.w3.org/1999/xlink" version="1.1" x="0px" y="0px" viewBox="0 0 150 187.5" style="enable-background:new 0 0 150 150;" xml:space="preserve"><g><path d="M133.8,42.3c0,15.1-12.3,27.3-27.5,27.3H88.9c-0.5,0-0.9,0.4-0.9,0.9v12H62.1v-12c0-0.5-0.4-0.9-0.9-0.9H44.4   c-15.1,0-27.5-11.4-28.2-26c-0.4-7.5,2.3-14.7,7.5-20.1C29,18,36.1,15,43.7,15h62.6C121.5,15,133.8,27.3,133.8,42.3z"/><g><path d="M122.2,126.7c0,4.6-3.7,8.3-8.3,8.3H36.1c-4.6,0-8.3-3.7-8.3-8.3c0-4.6,3.7-8.3,8.3-8.3h15.5c5.8,0,10.5-4.7,10.5-10.5    V90.4H39.8c-1.1,0-2-0.9-2-2c0-1.1,0.9-2,2-2h70.4c1.1,0,2,0.9,2,2c0,1.1-0.9,2-2,2H87.9V108c0,5.8,4.7,10.5,10.5,10.5H114    C118.5,118.5,122.2,122.2,122.2,126.7z"/></g></g></svg>