<svg width="95.99999999999999" height="95.99999999999999" xmlns="http://www.w3.org/2000/svg">

 <g>
  <title>background</title>
  <rect fill="none" id="canvas_background" height="98" width="98" y="-1" x="-1"/>
 </g>
 <g>
  <title>Layer 1</title>
  <g stroke="null" id="svg_1">
   <path stroke="null" id="svg_2" d="m88.052096,25.733489c0,10.282089 -8.375477,18.589473 -18.725659,18.589473l-11.848235,0c-0.340467,0 -0.61284,0.272373 -0.61284,0.61284l0,8.171197l-17.636166,0l0,-8.171197c0,-0.340467 -0.272373,-0.61284 -0.61284,-0.61284l-11.439676,0c-10.282089,0 -18.725659,-7.762637 -19.202312,-17.70426c-0.272373,-5.106998 1.566146,-10.009716 5.106998,-13.686755c3.608945,-3.745132 8.44357,-5.787931 13.618661,-5.787931l42.62641,0c10.350183,0 18.725659,8.375477 18.725659,18.589473z"/>
   <g stroke="null" id="svg_3">
    <path stroke="null" id="svg_4" d="m80.153273,83.20424c0,3.132292 -2.519452,5.651744 -5.651744,5.651744l-52.976593,0c-3.132292,0 -5.651744,-2.519452 -5.651744,-5.651744c0,-3.132292 2.519452,-5.651744 5.651744,-5.651744l10.554463,0c3.949412,0 7.149797,-3.200385 7.149797,-7.149797l0,-11.916329l-15.184807,0c-0.749026,0 -1.361866,-0.61284 -1.361866,-1.361866c0,-0.749026 0.61284,-1.361866 1.361866,-1.361866l47.937688,0c0.749026,0 1.361866,0.61284 1.361866,1.361866c0,0.749026 -0.61284,1.361866 -1.361866,1.361866l-15.184807,0l0,11.984422c0,3.949412 3.200385,7.149797 7.149797,7.149797l10.622556,0c3.064199,0 5.583651,2.519452 5.583651,5.583651z"/>
   </g>
  </g>
 </g>
</svg>