<svg xmlns:dc="http://purl.org/dc/elements/1.1/" xmlns:cc="http://creativecommons.org/ns#" xmlns:rdf="http://www.w3.org/1999/02/22-rdf-syntax-ns#" xmlns:svg="http://www.w3.org/2000/svg" xmlns="http://www.w3.org/2000/svg" xmlns:sodipodi="http://sodipodi.sourceforge.net/DTD/sodipodi-0.dtd" xmlns:inkscape="http://www.inkscape.org/namespaces/inkscape" version="1.1" x="0px" y="0px" viewBox="0 0 100 125"><g transform="translate(0,-952.36218)"><path style="color:#000000;enable-background:accumulate;" d="m 16,967.36215 c 6.7513,7.3452 13,16.0684 13,23.875 0,7.8066 -5.8245,14.12495 -13,14.12495 -7.1756002,0 -13.0000002,-6.31835 -13.0000002,-14.12495 0,-7.8066 6.2488,-16.5298 13.0000002,-23.875 z m 34,16 c 6.7513,7.3452 13,16.0684 13,23.87495 0,7.8067 -5.8245,14.1251 -13,14.1251 -7.1756,0 -13,-6.3184 -13,-14.1251 0,-7.80655 6.2488,-16.52975 13,-23.87495 z m 34,16 c 6.7513,7.34515 13,16.06845 13,23.87505 0,7.8066 -5.8244,14.125 -13,14.125 -7.1756,0 -13,-6.3184 -13,-14.125 0,-7.8066 6.2488,-16.5299 13,-23.87505 z" fill="#000000" stroke="none" marker="none" visibility="visible" display="inline" overflow="visible"/></g></svg>