<svg width="48" height="89" xmlns="http://www.w3.org/2000/svg">

 <g>
  <title>background</title>
  <rect fill="none" id="canvas_background" height="91" width="50" y="-1" x="-1"/>
 </g>
 <g>
  <title>Layer 1</title>
  <g stroke="null" id="svg_1">
   <path id="svg_2" fill="#000000" d="m8.190737,3.35321c3.016538,3.281898 5.808511,7.179498 5.808511,10.667553c0,3.488055 -2.602436,6.311148 -5.808511,6.311148c-3.206119,0 -5.808511,-2.823093 -5.808511,-6.311148c0,-3.488055 2.792017,-7.385655 5.808511,-10.667553zm15.19149,7.148936c3.016538,3.281898 5.808511,7.179498 5.808511,10.667531c0,3.4881 -2.602436,6.311215 -5.808511,6.311215c-3.206119,0 -5.808511,-2.823115 -5.808511,-6.311215c0,-3.488033 2.792017,-7.385633 5.808511,-10.667531zm15.19149,7.148936c3.016538,3.281876 5.808511,7.17952 5.808511,10.667576c0,3.488055 -2.602392,6.31117 -5.808511,6.31117c-3.206119,0 -5.808511,-2.823115 -5.808511,-6.31117c0,-3.488055 2.792017,-7.3857 5.808511,-10.667576z"/>
  </g>
  <g stroke="null" id="svg_4">
   <path id="svg_3" fill="#000000" d="m8.190736,29.580218c3.016539,3.281898 5.808511,7.179498 5.808511,10.667553c0,3.488055 -2.602436,6.311148 -5.808511,6.311148c-3.206119,0 -5.80851,-2.823093 -5.80851,-6.311148c0,-3.488055 2.792017,-7.385655 5.80851,-10.667553zm15.19149,7.148936c3.016538,3.281898 5.808511,7.179498 5.808511,10.667531c0,3.4881 -2.602437,6.311215 -5.808511,6.311215c-3.206119,0 -5.808511,-2.823115 -5.808511,-6.311215c0,-3.488033 2.792017,-7.385633 5.808511,-10.667531zm15.191489,7.148936c3.016539,3.281876 5.808511,7.17952 5.808511,10.667576c0,3.488055 -2.602391,6.31117 -5.808511,6.31117c-3.206119,0 -5.80851,-2.823115 -5.80851,-6.31117c0,-3.488056 2.792017,-7.3857 5.80851,-10.667576z"/>
  </g>
  <g stroke="null" id="svg_6">
   <path id="svg_5" fill="#000000" d="m8.190736,55.091738c3.016539,3.281898 5.808511,7.179498 5.808511,10.667553c0,3.488055 -2.602436,6.311148 -5.808511,6.311148c-3.206119,0 -5.80851,-2.823093 -5.80851,-6.311148c0,-3.488055 2.792017,-7.385655 5.80851,-10.667553zm15.19149,7.148936c3.016538,3.281898 5.808511,7.179498 5.808511,10.667531c0,3.4881 -2.602437,6.311215 -5.808511,6.311215c-3.206119,0 -5.808511,-2.823115 -5.808511,-6.311215c0,-3.488033 2.792017,-7.385633 5.808511,-10.667531zm15.191489,7.148936c3.016539,3.281876 5.808511,7.17952 5.808511,10.667576c0,3.488055 -2.602391,6.31117 -5.808511,6.31117c-3.206119,0 -5.80851,-2.823115 -5.80851,-6.31117c0,-3.488056 2.792017,-7.3857 5.80851,-10.667576z"/>
  </g>
 </g>
</svg>