<svg width="92" height="92" xmlns="http://www.w3.org/2000/svg">
 <!-- Created with Method Draw - http://github.com/duopixel/Method-Draw/ -->

 <g>
  <title>background</title>
  <rect fill="#fff" id="canvas_background" height="402" width="582" y="-1" x="-1"/>
 </g>
 <g>
  <title>Layer 1</title>
  <g id="svg_74">
   <g id="svg_4">
    <path id="svg_5" d="m-1428.917554,-695.328003l0,-14.2l1,0l0,-1.2l-1,0l-3.3,0l0,-1.6l1.3,0l0,-1.2l-1.3,0l0,-0.7l1.3,0l0,-1.2l-1.3,0l0,-0.9l-1.2,0l0,0.9l-1.3,0l0,1.2l1.3,0l0,0.7l-1.3,0l0,1.2l1.3,0l0,1.6l-4.2,0l0,-22.5l0.8,0l0,-1.2l-0.8,0l0,-2.1l-11.8,0l0,-4l0.7,0l0,-1.2l-0.7,0l0,0c-0.3,-2.6 -2.4,-4.7 -5,-5l0,-1.6l-1.2,0l0,1.6c-2.6,0.3 -4.7,2.4 -5,5l0,0l-0.7,0l0,1.2l0.7,0l0,8.8l-10,0l0,-16.7l-10.5,0l0,-3.1l0.8,0l0,-1.2l-0.8,0l0,-6.7l0.8,0l0,-1.2l-1.2,0l-4.7,-5.6l-4.7,5.6l-1.2,0l0,1.2l0.8,0l0,6.7l-0.8,0l0,1.2l0.8,0l0,22.2l-14.4,0l-0.6,0l-1.7,0l0,1.2l1.7,0l0,32.8l-1.1,0l0,1.2l3.3,0l4.1,0l11.8,0l4.1,0l5.7,0l4.1,0l4.2,0l2.9,0l1.2,0l2.9,0l27.2,0l4.1,0l7.2,0l0,-1.2l-4.3,0zm-57.3,-69l3.1,3.7l-6.3,0l3.2,-3.7zm-15,69l-1.7,0l0,-5l1.7,0l0,5zm15.9,0l-1.7,0l0,-5l1.7,0l0,5zm3,-9.2l-6.4,0l0,1.2l6.4,0l0,7.9l-1.8,0l0,-6.3l-4.1,0l0,6.3l-1.8,0l0,-12.6l-1.2,0l0,12.7l-8.8,0l0,-6.3l-4.1,0l0,6.3l-1,0l0,-32.8l13.9,0l0,15l1.2,0l0,-38.4l7.7,0l0,47zm0,-48.2l-7.7,0l0,-6.7l7.7,0l0,6.7zm6.8,57.4l-1.7,0l0,-3.3l1.7,0l0,3.3zm8.2,0l-1.7,0l0,-4.5l1.7,0l0,4.5zm2.9,0l-1.7,0l0,-4.5l1.7,0l0,4.5zm3.7,-32.8l-8.2,0l0,1.2l8.2,0l0,2.2l-7.4,0l0,1.2l7.4,0l0,2.2l-8.2,0l0,1.2l8.2,0l0,2.2l-5.5,0l0,1.1l5.5,0l0,2.2l-8.2,0l0,1.2l8.2,0l0,2.2l-7.4,0l0,1.2l7.4,0l0,2.2l-9.7,0l0,1.2l9.7,0l0,2.2l-14.2,0l0,1.2l14.2,0l0,7.9l-2.5,0l0,-5.8l-2.9,0l-1.2,0l-2.9,0l0,5.8l-4.2,0l0,-4.5l-4.1,0l0,4.5l-2.7,0l0,-7.9l3.7,0l0,-1.2l-3.7,0l0,-42.7l9.2,0l0,31.1l1.2,0l0,-14.5l10,0l0,2.4l0.1,0zm5.6,-17.4c2.2,0 4.1,1.7 4.4,3.8l-8.8,0c0.4,-2.2 2.2,-3.8 4.4,-3.8zm-4.4,5l8.9,0l0,8.8l-6.3,0l0,-8.2l-1.2,0l0,8.2l-1.4,0l0,-8.8zm26.5,45.2l-1.7,0l0,-3.3l1.7,0l0,3.3zm2.9,-12.7l-5.8,0l0,1.2l5.8,0l0,1.4l-5.8,0l0,1.2l5.8,0l0,1.4l-5.8,0l0,1.2l5.8,0l0,6.3l-1.8,0l0,-4.5l-4.1,0l0,4.5l-13.4,0l0,-0.7l1.9,0l-2.5,-9.2l-2.5,9.2l1.9,0l0,0.7l-4.8,0l0,-0.7l1.9,0l-2.5,-9.2l-2.5,9.2l1.9,0l0,0.7l-2.9,0l0,-35.2l1.4,0l0,23.8l1.2,0l0,-23.8l6.3,0l0,18.2l1.2,0l0,-18.2l0.6,0l0,-1.2l-0.6,0l0,-3.6l10.6,0l0,33.7l1.2,0l0,-7.9l7.5,0l0,1.5zm-20.8,10.8l0.9,-3.3l0.9,3.3l-1.8,0zm-6,0l0.9,-3.3l0.9,3.3l-1.8,0z"/>
    <rect id="svg_6" height="1.2" width="3.7" y="-704.228003" x="-1503.817554"/>
    <rect id="svg_7" height="1.2" width="3.7" y="-707.228003" x="-1503.817554"/>
    <rect id="svg_8" height="1.2" width="3.7" y="-710.028003" x="-1503.817554"/>
    <rect id="svg_9" height="3.7" width="1.2" y="-725.428003" x="-1503.217554"/>
    <rect id="svg_10" height="3.7" width="1.2" y="-725.428003" x="-1499.717554"/>
    <rect id="svg_11" height="3.7" width="1.2" y="-725.428003" x="-1496.217554"/>
    <rect id="svg_12" height="3.7" width="1.2" y="-718.928003" x="-1503.217554"/>
    <rect id="svg_13" height="3.7" width="1.2" y="-718.928003" x="-1499.717554"/>
    <rect id="svg_14" height="3.7" width="1.2" y="-744.928003" x="-1478.417554"/>
    <rect id="svg_15" height="3.7" width="1.2" y="-744.928003" x="-1474.917554"/>
    <rect id="svg_16" height="3.7" width="1.2" y="-738.128003" x="-1478.417554"/>
    <rect id="svg_17" height="3.7" width="1.2" y="-738.128003" x="-1474.917554"/>
    <rect id="svg_18" height="3.7" width="1.2" y="-731.428003" x="-1478.417554"/>
    <rect id="svg_19" height="3.7" width="1.2" y="-731.428003" x="-1474.917554"/>
    <rect id="svg_20" height="3.7" width="1.2" y="-724.728003" x="-1478.417554"/>
    <rect id="svg_21" height="3.7" width="1.2" y="-724.728003" x="-1474.917554"/>
    <rect id="svg_22" height="3.7" width="1.2" y="-717.928003" x="-1478.417554"/>
    <rect id="svg_23" height="3.7" width="1.2" y="-717.928003" x="-1474.917554"/>
    <rect id="svg_24" height="3.7" width="1.2" y="-732.328003" x="-1445.717554"/>
    <rect id="svg_25" height="3.7" width="1.2" y="-732.328003" x="-1442.217554"/>
    <rect id="svg_26" height="3.7" width="1.2" y="-725.528003" x="-1445.717554"/>
    <rect id="svg_27" height="3.7" width="1.2" y="-725.528003" x="-1442.217554"/>
    <rect id="svg_28" height="3.7" width="1.2" y="-718.828003" x="-1445.717554"/>
    <rect id="svg_29" height="3.7" width="1.2" y="-718.828003" x="-1442.217554"/>
    <rect id="svg_30" height="3.7" width="1.2" y="-712.128003" x="-1445.717554"/>
    <rect id="svg_31" height="3.7" width="1.2" y="-712.128003" x="-1442.217554"/>
    <rect id="svg_32" height="3.7" width="1.2" y="-705.328003" x="-1445.717554"/>
    <rect id="svg_33" height="3.7" width="1.2" y="-705.328003" x="-1442.217554"/>
    <rect id="svg_34" height="3.7" width="1.2" y="-711.228003" x="-1478.417554"/>
    <rect id="svg_35" height="3.7" width="1.2" y="-711.228003" x="-1474.917554"/>
    <rect id="svg_36" height="3.7" width="1.2" y="-718.928003" x="-1496.217554"/>
    <rect id="svg_37" height="3.7" width="1.2" y="-712.628003" x="-1496.217554"/>
    <rect id="svg_38" height="4.6" width="1.2" y="-710.728003" x="-1486.817554"/>
    <path id="svg_39" d="m-1486.217554,-753.828003c1.3,0 2.4,-1.1 2.4,-2.4s-1.1,-2.4 -2.4,-2.4c-1.3,0 -2.4,1.1 -2.4,2.4s1.1,2.4 2.4,2.4zm0,-3.5c0.6,0 1.2,0.5 1.2,1.2c0,0.6 -0.5,1.2 -1.2,1.2c-0.6,0 -1.2,-0.5 -1.2,-1.2c0.1,-0.7 0.6,-1.2 1.2,-1.2z"/>
    <path id="svg_40" d="m-1487.817554,-713.228003l3.2,0l0,-12.8l-3.2,0l0,12.8zm1.2,-11.6l0.8,0l0,10.4l-0.8,0l0,-10.4z"/>
    <path id="svg_41" d="m-1487.817554,-729.828003l3.2,0l0,-12.9l-3.2,0l0,12.9zm1.2,-11.7l0.8,0l0,10.4l-0.8,0l0,-10.4z"/>
    <rect id="svg_42" height="2.5" width="1.2" y="-748.628003" x="-1488.817554"/>
    <rect id="svg_43" height="2.5" width="1.2" y="-748.628003" x="-1486.817554"/>
    <rect id="svg_44" height="2.5" width="1.2" y="-748.628003" x="-1484.717554"/>
    <path id="svg_45" d="m-1507.917554,-696.028003l-2.5,-9.2l-2.5,9.2l1.9,0l0,0.7l-2.9,0l0,1.2l5.1,0l0,-1.2l-1.1,0l0,-0.7l2,0zm-3.4,-1.2l0.9,-3.3l0.9,3.3l-1.8,0z"/>
    <path id="svg_46" d="m-1452.617554,-732.528003l1.2,-2.1l-1.2,-2.1l-2.4,0l-1.2,2.1l1.2,2.1l2.4,0zm-1.7,-3l1,0l0.5,0.8l-0.5,0.9l-1,0l-0.5,-0.8l0.5,-0.9z"/>
    <rect id="svg_47" height="21.1" width="1.2" y="-727.728003" x="-1455.717554"/>
    <rect id="svg_48" height="18.3" width="1.2" y="-724.928003" x="-1453.217554"/>
    <rect id="svg_49" height="3.2" width="1.2" y="-729.128003" x="-1453.217554"/>
    <rect id="svg_50" height="1.9" width="1.2" y="-700.728003" x="-1438.817554"/>
    <rect id="svg_51" height="1" width="10" y="-726.828003" x="-1518.617554"/>
    <path id="svg_52" d="m-1516.417554,-728.128003l6.7,0l0,-1.2l-6.7,0c-0.2,0 -0.4,-0.2 -0.4,-0.4c0,-0.2 0.2,-0.4 0.4,-0.4l0,-1.2c-0.9,0 -1.6,0.7 -1.6,1.6c0,0.9 0.7,1.6 1.6,1.6z"/>
    <path id="svg_53" d="m-1512.617554,-722.228003c-0.4,0 -0.8,-0.4 -0.8,-0.8c0,-0.4 0.3,-0.8 0.8,-0.8l3.9,0l0,-1.2l-3.9,0c-1.1,0 -2,0.9 -2,2s0.9,2 2,2l0,-1.2z"/>
    <path id="svg_54" d="m-1507.017554,-744.728003l6.1,0l0,-1.2l-6.1,0c-0.5,0 -1,-0.4 -1,-1c0,-0.5 0.4,-0.9 0.9,-1l0.6,-0.1l0,-0.6c0,-1 0.8,-1.8 1.9,-1.8c1,0 1.8,0.9 1.8,2l0,0.6l0.6,0c0.5,0 0.9,0.4 0.9,0.9l1.2,0c0,-1 -0.7,-1.8 -1.6,-2.1c-0.2,-1.5 -1.5,-2.7 -3,-2.7c-1.6,0 -2.8,1.2 -3,2.7c-0.8,0.3 -1.4,1.1 -1.4,2.1c-0.1,1.2 0.9,2.2 2.1,2.2z"/>
    <rect id="svg_55" height="1.2" width="2.7" y="-745.928003" x="-1500.117554"/>
    <path id="svg_56" d="m-1437.317554,-745.528003l6.1,0l0,-1.2l-6.1,0c-0.5,0 -1,-0.4 -1,-1c0,-0.5 0.4,-0.9 0.9,-1l0.6,-0.1l0,-0.6c0,-1 0.8,-1.8 1.8,-1.8c1,0 1.8,0.9 1.8,2l0,0.6l0.6,0c0.5,0 0.9,0.4 0.9,0.9l1.2,0c0,-1 -0.7,-1.8 -1.6,-2.1c-0.2,-1.5 -1.5,-2.7 -3,-2.7c-1.5,0 -2.8,1.2 -3,2.6c-0.8,0.3 -1.4,1.1 -1.4,2.1c0,1.3 1,2.3 2.2,2.3z"/>
    <rect id="svg_57" height="1.2" width="2.7" y="-746.728003" x="-1430.517554"/>
    <path id="svg_58" d="m-1470.817554,-756.028003l7.8,0l0,-1.2l-7.8,0c-0.8,0 -1.4,-0.6 -1.4,-1.4c0,-0.7 0.5,-1.3 1.3,-1.4l0.6,-0.1l0,-0.6c0,-1.4 1.1,-2.5 2.5,-2.5c1.3,0 2.5,1.3 2.5,2.7l0,0.6l0.6,0c0.7,0 1.3,0.6 1.3,1.4l1.2,0c0,-1.2 -0.9,-2.2 -2,-2.5c-0.3,-1.9 -1.9,-3.4 -3.7,-3.4c-1.9,0 -3.5,1.5 -3.7,3.4c-1.1,0.4 -1.8,1.4 -1.8,2.5c-0.1,1.3 1.1,2.5 2.6,2.5z"/>
    <rect id="svg_59" height="1.2" width="3.5" y="-757.228003" x="-1462.017554"/>
    <path id="svg_60" d="m-1457.817554,-767.628003c-1.9,0 -3.5,1.6 -3.5,3.5s1.6,3.5 3.5,3.5s3.5,-1.6 3.5,-3.5s-1.6,-3.5 -3.5,-3.5zm0,5.7c-1.2,0 -2.3,-1 -2.3,-2.3s1,-2.3 2.3,-2.3s2.3,1 2.3,2.3s-1,2.3 -2.3,2.3z"/>
    <rect id="svg_61" height="1.2" width="1.2" y="-769.428003" x="-1458.417554"/>
    <rect id="svg_62" height="1.2" width="1.2" transform="matrix(0.5,0.866,-0.866,0.5,40.8055,-47.4365) " y="938.847625" x="-1375.30302"/>
    <rect id="svg_63" height="1.2" width="1.2" transform="matrix(0.866,0.5,-0.5,0.866,14.6702,-28.1045) " y="98.181488" x="-1648.509942"/>
    <rect id="svg_64" height="1.2" width="1.2" y="-764.828003" x="-1463.017554"/>
    <rect id="svg_65" height="1.2" width="1.2" transform="matrix(0.866,-0.5,0.5,0.866,-0.9793,32.2989) " y="-1418.80302" x="-868.647625"/>
    <rect id="svg_66" height="1.2" width="1.2" transform="matrix(0.5,-0.866,0.866,0.5,13.6997,63.088) " y="-1688.609942" x="-24.581488"/>
    <rect id="svg_67" height="1.2" width="1.2" y="-760.128003" x="-1458.417554"/>
    <rect id="svg_68" height="1.2" width="1.2" transform="matrix(-0.8661,0.4999,-0.4999,-0.8661,133.2546,3.6606) " y="1455.123688" x="993.509828"/>
    <rect id="svg_69" height="1.2" width="1.2" transform="matrix(0.866,0.5,-0.5,0.866,18.0777,-31.512) " y="102.881488" x="-1640.509942"/>
    <rect id="svg_70" height="1.2" width="1.2" y="-764.828003" x="-1453.717554"/>
    <rect id="svg_71" height="1.2" width="1.2" transform="matrix(0.5,0.866,-0.866,0.5,45.4559,-52.0889) " y="940.547625" x="-1369.00302"/>
    <rect id="svg_72" height="1.2" width="1.2" transform="matrix(0.866,0.5,-0.5,0.866,14.6691,-31.5099) " y="96.481488" x="-1642.209942"/>
    <path id="svg_73" d="m-1459.117554,-765.428003c-0.7,0.7 -0.7,1.9 0,2.6l0.9,-0.9c-0.2,-0.2 -0.2,-0.6 0,-0.8c0.1,-0.1 0.3,-0.2 0.4,-0.2s0.3,0.1 0.4,0.2l0.9,-0.9c-0.3,-0.3 -0.8,-0.5 -1.3,-0.5s-0.9,0.1 -1.3,0.5z"/>
   </g>
  </g>
  <g stroke="null" id="svg_148">
   <g stroke="null" transform="matrix(0.8820666474926688,0,0,0.8820666474926688,-385.4456334803005,-385.4456420001553) " id="svg_78">
    <path stroke="null" id="svg_79" d="m532.460276,525.790387l0,-14.2l1,0l0,-1.2l-1,0l-3.3,0l0,-1.6l1.3,0l0,-1.2l-1.3,0l0,-0.7l1.3,0l0,-1.2l-1.3,0l0,-0.9l-1.2,0l0,0.9l-1.3,0l0,1.2l1.3,0l0,0.7l-1.3,0l0,1.2l1.3,0l0,1.6l-4.2,0l0,-22.5l0.8,0l0,-1.2l-0.8,0l0,-2.1l-11.8,0l0,-4l0.7,0l0,-1.2l-0.7,0l0,0c-0.3,-2.6 -2.4,-4.7 -5,-5l0,-1.6l-1.2,0l0,1.6c-2.6,0.3 -4.7,2.4 -5,5l0,0l-0.7,0l0,1.2l0.7,0l0,8.8l-10,0l0,-16.7l-10.5,0l0,-3.1l0.8,0l0,-1.2l-0.8,0l0,-6.7l0.8,0l0,-1.2l-1.2,0l-4.7,-5.6l-4.7,5.6l-1.2,0l0,1.2l0.8,0l0,6.7l-0.8,0l0,1.2l0.8,0l0,22.2l-14.4,0l-0.6,0l-1.7,0l0,1.2l1.7,0l0,32.8l-1.1,0l0,1.2l3.3,0l4.1,0l11.8,0l4.1,0l5.7,0l4.1,0l4.2,0l2.9,0l1.2,0l2.9,0l27.2,0l4.1,0l7.2,0l0,-1.2l-4.3,0zm-57.3,-69l3.1,3.7l-6.3,0l3.2,-3.7zm-15,69l-1.7,0l0,-5l1.7,0l0,5zm15.9,0l-1.7,0l0,-5l1.7,0l0,5zm3,-9.2l-6.4,0l0,1.2l6.4,0l0,7.9l-1.8,0l0,-6.3l-4.1,0l0,6.3l-1.8,0l0,-12.6l-1.2,0l0,12.7l-8.8,0l0,-6.3l-4.1,0l0,6.3l-1,0l0,-32.8l13.9,0l0,15l1.2,0l0,-38.4l7.7,0l0,47zm0,-48.2l-7.7,0l0,-6.7l7.7,0l0,6.7zm6.8,57.4l-1.7,0l0,-3.3l1.7,0l0,3.3zm8.2,0l-1.7,0l0,-4.5l1.7,0l0,4.5zm2.9,0l-1.7,0l0,-4.5l1.7,0l0,4.5zm3.7,-32.8l-8.2,0l0,1.2l8.2,0l0,2.2l-7.4,0l0,1.2l7.4,0l0,2.2l-8.2,0l0,1.2l8.2,0l0,2.2l-5.5,0l0,1.1l5.5,0l0,2.2l-8.2,0l0,1.2l8.2,0l0,2.2l-7.4,0l0,1.2l7.4,0l0,2.2l-9.7,0l0,1.2l9.7,0l0,2.2l-14.2,0l0,1.2l14.2,0l0,7.9l-2.5,0l0,-5.8l-2.9,0l-1.2,0l-2.9,0l0,5.8l-4.2,0l0,-4.5l-4.1,0l0,4.5l-2.7,0l0,-7.9l3.7,0l0,-1.2l-3.7,0l0,-42.7l9.2,0l0,31.1l1.2,0l0,-14.5l10,0l0,2.4l0.1,0zm5.6,-17.4c2.2,0 4.1,1.7 4.4,3.8l-8.8,0c0.4,-2.2 2.2,-3.8 4.4,-3.8zm-4.4,5l8.9,0l0,8.8l-6.3,0l0,-8.2l-1.2,0l0,8.2l-1.4,0l0,-8.8zm26.5,45.2l-1.7,0l0,-3.3l1.7,0l0,3.3zm2.9,-12.7l-5.8,0l0,1.2l5.8,0l0,1.4l-5.8,0l0,1.2l5.8,0l0,1.4l-5.8,0l0,1.2l5.8,0l0,6.3l-1.8,0l0,-4.5l-4.1,0l0,4.5l-13.4,0l0,-0.7l1.9,0l-2.5,-9.2l-2.5,9.2l1.9,0l0,0.7l-4.8,0l0,-0.7l1.9,0l-2.5,-9.2l-2.5,9.2l1.9,0l0,0.7l-2.9,0l0,-35.2l1.4,0l0,23.8l1.2,0l0,-23.8l6.3,0l0,18.2l1.2,0l0,-18.2l0.6,0l0,-1.2l-0.6,0l0,-3.6l10.6,0l0,33.7l1.2,0l0,-7.9l7.5,0l0,1.5zm-20.8,10.8l0.9,-3.3l0.9,3.3l-1.8,0zm-6,0l0.9,-3.3l0.9,3.3l-1.8,0z"/>
    <rect stroke="null" id="svg_80" height="1.2" width="3.7" y="516.890387" x="457.560276"/>
    <rect stroke="null" id="svg_81" height="1.2" width="3.7" y="513.890387" x="457.560276"/>
    <rect stroke="null" id="svg_82" height="1.2" width="3.7" y="511.090387" x="457.560276"/>
    <rect stroke="null" id="svg_83" height="3.7" width="1.2" y="495.690387" x="458.160276"/>
    <rect stroke="null" id="svg_84" height="3.7" width="1.2" y="495.690387" x="461.660276"/>
    <rect stroke="null" id="svg_85" height="3.7" width="1.2" y="495.690387" x="465.160276"/>
    <rect stroke="null" id="svg_86" height="3.7" width="1.2" y="502.190387" x="458.160276"/>
    <rect stroke="null" id="svg_87" height="3.7" width="1.2" y="502.190387" x="461.660276"/>
    <rect stroke="null" id="svg_88" height="3.7" width="1.2" y="476.190387" x="482.960276"/>
    <rect stroke="null" id="svg_89" height="3.7" width="1.2" y="476.190387" x="486.460276"/>
    <rect stroke="null" id="svg_90" height="3.7" width="1.2" y="482.990387" x="482.960276"/>
    <rect stroke="null" id="svg_91" height="3.7" width="1.2" y="482.990387" x="486.460276"/>
    <rect stroke="null" id="svg_92" height="3.7" width="1.2" y="489.690387" x="482.960276"/>
    <rect stroke="null" id="svg_93" height="3.7" width="1.2" y="489.690387" x="486.460276"/>
    <rect stroke="null" id="svg_94" height="3.7" width="1.2" y="496.390387" x="482.960276"/>
    <rect stroke="null" id="svg_95" height="3.7" width="1.2" y="496.390387" x="486.460276"/>
    <rect stroke="null" id="svg_96" height="3.7" width="1.2" y="503.190387" x="482.960276"/>
    <rect stroke="null" id="svg_97" height="3.7" width="1.2" y="503.190387" x="486.460276"/>
    <rect stroke="null" id="svg_98" height="3.7" width="1.2" y="488.790387" x="515.660276"/>
    <rect stroke="null" id="svg_99" height="3.7" width="1.2" y="488.790387" x="519.160276"/>
    <rect stroke="null" id="svg_100" height="3.7" width="1.2" y="495.590387" x="515.660276"/>
    <rect stroke="null" id="svg_101" height="3.7" width="1.2" y="495.590387" x="519.160276"/>
    <rect stroke="null" id="svg_102" height="3.7" width="1.2" y="502.290387" x="515.660276"/>
    <rect stroke="null" id="svg_103" height="3.7" width="1.2" y="502.290387" x="519.160276"/>
    <rect stroke="null" id="svg_104" height="3.7" width="1.2" y="508.990387" x="515.660276"/>
    <rect stroke="null" id="svg_105" height="3.7" width="1.2" y="508.990387" x="519.160276"/>
    <rect stroke="null" id="svg_106" height="3.7" width="1.2" y="515.790387" x="515.660276"/>
    <rect stroke="null" id="svg_107" height="3.7" width="1.2" y="515.790387" x="519.160276"/>
    <rect stroke="null" id="svg_108" height="3.7" width="1.2" y="509.890387" x="482.960276"/>
    <rect stroke="null" id="svg_109" height="3.7" width="1.2" y="509.890387" x="486.460276"/>
    <rect stroke="null" id="svg_110" height="3.7" width="1.2" y="502.190387" x="465.160276"/>
    <rect stroke="null" id="svg_111" height="3.7" width="1.2" y="508.490387" x="465.160276"/>
    <rect stroke="null" id="svg_112" height="4.6" width="1.2" y="510.390387" x="474.560276"/>
    <path stroke="null" id="svg_113" d="m475.160276,467.290387c1.3,0 2.4,-1.1 2.4,-2.4s-1.1,-2.4 -2.4,-2.4c-1.3,0 -2.4,1.1 -2.4,2.4s1.1,2.4 2.4,2.4zm0,-3.5c0.6,0 1.2,0.5 1.2,1.2c0,0.6 -0.5,1.2 -1.2,1.2c-0.6,0 -1.2,-0.5 -1.2,-1.2c0.1,-0.7 0.6,-1.2 1.2,-1.2z"/>
    <path stroke="null" id="svg_114" d="m473.560276,507.890387l3.2,0l0,-12.8l-3.2,0l0,12.8zm1.2,-11.6l0.8,0l0,10.4l-0.8,0l0,-10.4z"/>
    <path stroke="null" id="svg_115" d="m473.560276,491.290387l3.2,0l0,-12.9l-3.2,0l0,12.9zm1.2,-11.7l0.8,0l0,10.4l-0.8,0l0,-10.4z"/>
    <rect stroke="null" id="svg_116" height="2.5" width="1.2" y="472.490387" x="472.560276"/>
    <rect stroke="null" id="svg_117" height="2.5" width="1.2" y="472.490387" x="474.560276"/>
    <rect stroke="null" id="svg_118" height="2.5" width="1.2" y="472.490387" x="476.660276"/>
    <path stroke="null" id="svg_119" d="m453.460276,525.090387l-2.5,-9.2l-2.5,9.2l1.9,0l0,0.7l-2.9,0l0,1.2l5.1,0l0,-1.2l-1.1,0l0,-0.7l2,0zm-3.4,-1.2l0.9,-3.3l0.9,3.3l-1.8,0z"/>
    <path stroke="null" id="svg_120" d="m508.760276,488.590387l1.2,-2.1l-1.2,-2.1l-2.4,0l-1.2,2.1l1.2,2.1l2.4,0zm-1.7,-3l1,0l0.5,0.8l-0.5,0.9l-1,0l-0.5,-0.8l0.5,-0.9z"/>
    <rect stroke="null" id="svg_121" height="21.1" width="1.2" y="493.390387" x="505.660276"/>
    <rect stroke="null" id="svg_122" height="18.3" width="1.2" y="496.190387" x="508.160276"/>
    <rect stroke="null" id="svg_123" height="3.2" width="1.2" y="491.990387" x="508.160276"/>
    <rect stroke="null" id="svg_124" height="1.9" width="1.2" y="520.390387" x="522.560276"/>
    <rect stroke="null" id="svg_125" height="1" width="10" y="494.290387" x="442.760276"/>
    <path stroke="null" id="svg_126" d="m444.960276,492.990387l6.7,0l0,-1.2l-6.7,0c-0.2,0 -0.4,-0.2 -0.4,-0.4c0,-0.2 0.2,-0.4 0.4,-0.4l0,-1.2c-0.9,0 -1.6,0.7 -1.6,1.6c0,0.9 0.7,1.6 1.6,1.6z"/>
    <path stroke="null" id="svg_127" d="m448.760276,498.890387c-0.4,0 -0.8,-0.4 -0.8,-0.8c0,-0.4 0.3,-0.8 0.8,-0.8l3.9,0l0,-1.2l-3.9,0c-1.1,0 -2,0.9 -2,2s0.9,2 2,2l0,-1.2z"/>
    <path stroke="null" id="svg_128" d="m454.360276,476.390387l6.1,0l0,-1.2l-6.1,0c-0.5,0 -1,-0.4 -1,-1c0,-0.5 0.4,-0.9 0.9,-1l0.6,-0.1l0,-0.6c0,-1 0.8,-1.8 1.9,-1.8c1,0 1.8,0.9 1.8,2l0,0.6l0.6,0c0.5,0 0.9,0.4 0.9,0.9l1.2,0c0,-1 -0.7,-1.8 -1.6,-2.1c-0.2,-1.5 -1.5,-2.7 -3,-2.7c-1.6,0 -2.8,1.2 -3,2.7c-0.8,0.3 -1.4,1.1 -1.4,2.1c-0.1,1.2 0.9,2.2 2.1,2.2z"/>
    <rect stroke="null" id="svg_129" height="1.2" width="2.7" y="475.190387" x="461.260276"/>
    <path stroke="null" id="svg_130" d="m524.060276,475.590387l6.1,0l0,-1.2l-6.1,0c-0.5,0 -1,-0.4 -1,-1c0,-0.5 0.4,-0.9 0.9,-1l0.6,-0.1l0,-0.6c0,-1 0.8,-1.8 1.8,-1.8c1,0 1.8,0.9 1.8,2l0,0.6l0.6,0c0.5,0 0.9,0.4 0.9,0.9l1.2,0c0,-1 -0.7,-1.8 -1.6,-2.1c-0.2,-1.5 -1.5,-2.7 -3,-2.7c-1.5,0 -2.8,1.2 -3,2.6c-0.8,0.3 -1.4,1.1 -1.4,2.1c0,1.3 1,2.3 2.2,2.3z"/>
    <rect stroke="null" id="svg_131" height="1.2" width="2.7" y="474.390387" x="530.860276"/>
    <path stroke="null" id="svg_132" d="m490.560276,465.090387l7.8,0l0,-1.2l-7.8,0c-0.8,0 -1.4,-0.6 -1.4,-1.4c0,-0.7 0.5,-1.3 1.3,-1.4l0.6,-0.1l0,-0.6c0,-1.4 1.1,-2.5 2.5,-2.5c1.3,0 2.5,1.3 2.5,2.7l0,0.6l0.6,0c0.7,0 1.3,0.6 1.3,1.4l1.2,0c0,-1.2 -0.9,-2.2 -2,-2.5c-0.3,-1.9 -1.9,-3.4 -3.7,-3.4c-1.9,0 -3.5,1.5 -3.7,3.4c-1.1,0.4 -1.8,1.4 -1.8,2.5c-0.1,1.3 1.1,2.5 2.6,2.5z"/>
    <rect stroke="null" id="svg_133" height="1.2" width="3.5" y="463.890387" x="499.360276"/>
    <path stroke="null" id="svg_134" d="m503.560276,453.490387c-1.9,0 -3.5,1.6 -3.5,3.5s1.6,3.5 3.5,3.5s3.5,-1.6 3.5,-3.5s-1.6,-3.5 -3.5,-3.5zm0,5.7c-1.2,0 -2.3,-1 -2.3,-2.3s1,-2.3 2.3,-2.3s2.3,1 2.3,2.3s-1,2.3 -2.3,2.3z"/>
    <rect stroke="null" id="svg_135" height="1.2" width="1.2" y="451.690387" x="502.960276"/>
    <rect stroke="null" id="svg_136" height="1.2" width="1.2" transform="matrix(0.5,0.866,-0.866,0.5,40.8055,-47.4365) " y="-149.194254" x="662.964104"/>
    <rect stroke="null" id="svg_137" height="1.2" width="1.2" transform="matrix(0.866,0.5,-0.5,0.866,14.6702,-28.1045) " y="174.984477" x="660.704059"/>
    <rect stroke="null" id="svg_138" height="1.2" width="1.2" y="456.290387" x="498.360276"/>
    <rect stroke="null" id="svg_139" height="1.2" width="1.2" transform="matrix(0.866,-0.5,0.5,0.866,-0.9793,32.2989) " y="619.464104" x="219.394254"/>
    <rect stroke="null" id="svg_140" height="1.2" width="1.2" transform="matrix(0.5,-0.866,0.866,0.5,13.6997,63.088) " y="620.604059" x="-101.384477"/>
    <rect stroke="null" id="svg_141" height="1.2" width="1.2" y="460.990387" x="502.960276"/>
    <rect stroke="null" id="svg_142" height="1.2" width="1.2" transform="matrix(-0.8661,0.4999,-0.4999,-0.8661,133.2546,3.6606) " y="-582.920175" x="-94.770628"/>
    <rect stroke="null" id="svg_143" height="1.2" width="1.2" transform="matrix(0.866,0.5,-0.5,0.866,18.0777,-31.512) " y="179.684477" x="668.704059"/>
    <rect stroke="null" id="svg_144" height="1.2" width="1.2" y="456.290387" x="507.660276"/>
    <rect stroke="null" id="svg_145" height="1.2" width="1.2" transform="matrix(0.5,0.866,-0.866,0.5,45.4559,-52.0889) " y="-147.494254" x="669.264104"/>
    <rect stroke="null" id="svg_146" height="1.2" width="1.2" transform="matrix(0.866,0.5,-0.5,0.866,14.6691,-31.5099) " y="173.284477" x="667.004059"/>
    <path stroke="null" id="svg_147" d="m502.260276,455.690387c-0.7,0.7 -0.7,1.9 0,2.6l0.9,-0.9c-0.2,-0.2 -0.2,-0.6 0,-0.8c0.1,-0.1 0.3,-0.2 0.4,-0.2s0.3,0.1 0.4,0.2l0.9,-0.9c-0.3,-0.3 -0.8,-0.5 -1.3,-0.5s-0.9,0.1 -1.3,0.5z"/>
   </g>
  </g>
 </g>
</svg>