<svg xmlns="http://www.w3.org/2000/svg" xmlns:xlink="http://www.w3.org/1999/xlink" version="1.1" x="0px" y="0px" viewBox="0 0 100 125"><g><path d="M92.7,84.5V70.3h1v-1.2h-1h-3.3v-1.6h1.3v-1.2h-1.3v-0.7h1.3v-1.2h-1.3v-0.9h-1.2v0.9h-1.3v1.2h1.3v0.7h-1.3v1.2h1.3v1.6   H84V46.6h0.8v-1.2H84v-2.1H72.2v-4h0.7v-1.2h-0.7h0c-0.3-2.6-2.4-4.7-5-5v-1.6h-1.2v1.6c-2.6,0.3-4.7,2.4-5,5h0h-0.7v1.2h0.7v8.8   h-10V31.4H40.5v-3.1h0.8v-1.2h-0.8v-6.7h0.8v-1.2h-1.2l-4.7-5.6l-4.7,5.6h-1.2v1.2h0.8v6.7h-0.8v1.2h0.8v22.2H15.9h-0.6h-1.7v1.2   h1.7v32.8h-1.1v1.2h3.3h4.1h11.8h4.1h5.7h4.1h4.2h2.9h1.2h2.9h27.2h4.1h7.2v-1.2H92.7z M35.4,15.5l3.1,3.7h-6.3L35.4,15.5z    M20.4,84.5h-1.7v-5h1.7V84.5z M36.3,84.5h-1.7v-5h1.7V84.5z M39.3,75.3h-6.4v1.2h6.4v7.9h-1.8v-6.3h-4.1v6.3h-1.8V71.8h-1.2v12.7   h-8.8v-6.3h-4.1v6.3h-1V51.7h13.9v15h1.2V28.3h7.7V75.3z M39.3,27.1h-7.7v-6.7h7.7V27.1z M46.1,84.5h-1.7v-3.3h1.7V84.5z    M54.3,84.5h-1.7v-4.5h1.7V84.5z M57.2,84.5h-1.7v-4.5h1.7V84.5z M60.9,51.7h-8.2v1.2h8.2v2.2h-7.4v1.2h7.4v2.2h-8.2v1.2h8.2v2.2   h-5.5V63h5.5v2.2h-8.2v1.2h8.2v2.2h-7.4v1.2h7.4V72h-9.7v1.2h9.7v2.2H46.7v1.2h14.2v7.9h-2.5v-5.8h-2.9h-1.2h-2.9v5.8h-4.2v-4.5   h-4.1v4.5h-2.7v-7.9h3.7v-1.2h-3.7V32.7h9.2v31.1h1.2V49.3h10V51.7z M66.5,34.3c2.2,0,4.1,1.7,4.4,3.8h-8.8   C62.5,35.9,64.3,34.3,66.5,34.3z M62.1,39.3H71v8.8h-6.3v-8.2h-1.2v8.2h-1.4V39.3z M88.6,84.5h-1.7v-3.3h1.7V84.5z M91.5,71.8h-5.8   v1.2h5.8v1.4h-5.8v1.2h5.8V77h-5.8v1.2h5.8v6.3h-1.8v-4.5h-4.1v4.5H72.2v-0.7h1.9l-2.5-9.2l-2.5,9.2H71v0.7h-4.8v-0.7h1.9l-2.5-9.2   l-2.5,9.2H65v0.7h-2.9V49.3h1.4v23.8h1.2V49.3H71v18.2h1.2V49.3h0.6v-1.2h-0.6v-3.6h10.6v33.7H84v-7.9h7.5V71.8z M70.7,82.6   l0.9-3.3l0.9,3.3H70.7z M64.7,82.6l0.9-3.3l0.9,3.3H64.7z"/><rect x="17.8" y="75.6" width="3.7" height="1.2"/><rect x="17.8" y="72.6" width="3.7" height="1.2"/><rect x="17.8" y="69.8" width="3.7" height="1.2"/><rect x="18.4" y="54.4" width="1.2" height="3.7"/><rect x="21.9" y="54.4" width="1.2" height="3.7"/><rect x="25.4" y="54.4" width="1.2" height="3.7"/><rect x="18.4" y="60.9" width="1.2" height="3.7"/><rect x="21.9" y="60.9" width="1.2" height="3.7"/><rect x="43.2" y="34.9" width="1.2" height="3.7"/><rect x="46.7" y="34.9" width="1.2" height="3.7"/><rect x="43.2" y="41.7" width="1.2" height="3.7"/><rect x="46.7" y="41.7" width="1.2" height="3.7"/><rect x="43.2" y="48.4" width="1.2" height="3.7"/><rect x="46.7" y="48.4" width="1.2" height="3.7"/><rect x="43.2" y="55.1" width="1.2" height="3.7"/><rect x="46.7" y="55.1" width="1.2" height="3.7"/><rect x="43.2" y="61.9" width="1.2" height="3.7"/><rect x="46.7" y="61.9" width="1.2" height="3.7"/><rect x="75.9" y="47.5" width="1.2" height="3.7"/><rect x="79.4" y="47.5" width="1.2" height="3.7"/><rect x="75.9" y="54.3" width="1.2" height="3.7"/><rect x="79.4" y="54.3" width="1.2" height="3.7"/><rect x="75.9" y="61" width="1.2" height="3.7"/><rect x="79.4" y="61" width="1.2" height="3.7"/><rect x="75.9" y="67.7" width="1.2" height="3.7"/><rect x="79.4" y="67.7" width="1.2" height="3.7"/><rect x="75.9" y="74.5" width="1.2" height="3.7"/><rect x="79.4" y="74.5" width="1.2" height="3.7"/><rect x="43.2" y="68.6" width="1.2" height="3.7"/><rect x="46.7" y="68.6" width="1.2" height="3.7"/><rect x="25.4" y="60.9" width="1.2" height="3.7"/><rect x="25.4" y="67.2" width="1.2" height="3.7"/><rect x="34.8" y="69.1" width="1.2" height="4.6"/><path d="M35.4,26c1.3,0,2.4-1.1,2.4-2.4s-1.1-2.4-2.4-2.4c-1.3,0-2.4,1.1-2.4,2.4S34.1,26,35.4,26z M35.4,22.5   c0.6,0,1.2,0.5,1.2,1.2c0,0.6-0.5,1.2-1.2,1.2c-0.6,0-1.2-0.5-1.2-1.2C34.3,23,34.8,22.5,35.4,22.5z"/><path d="M33.8,66.6H37V53.8h-3.2V66.6z M35,55h0.8v10.4H35V55z"/><path d="M33.8,50H37V37.1h-3.2V50z M35,38.3h0.8v10.4H35V38.3z"/><rect x="32.8" y="31.2" width="1.2" height="2.5"/><rect x="34.8" y="31.2" width="1.2" height="2.5"/><rect x="36.9" y="31.2" width="1.2" height="2.5"/><path d="M13.7,83.8l-2.5-9.2l-2.5,9.2h1.9v0.7H7.7v1.2h5.1v-1.2h-1.1v-0.7H13.7z M10.3,82.6l0.9-3.3l0.9,3.3H10.3z"/><path d="M69,47.3l1.2-2.1L69,43.1h-2.4l-1.2,2.1l1.2,2.1H69z M67.3,44.3h1l0.5,0.8L68.3,46h-1l-0.5-0.8L67.3,44.3z"/><rect x="65.9" y="52.1" width="1.2" height="21.1"/><rect x="68.4" y="54.9" width="1.2" height="18.3"/><rect x="68.4" y="50.7" width="1.2" height="3.2"/><rect x="82.8" y="79.1" width="1.2" height="1.9"/><rect x="3" y="53" width="10" height="1"/><path d="M5.2,51.7h6.7v-1.2H5.2c-0.2,0-0.4-0.2-0.4-0.4c0-0.2,0.2-0.4,0.4-0.4v-1.2c-0.9,0-1.6,0.7-1.6,1.6   C3.6,51,4.3,51.7,5.2,51.7z"/><path d="M9,57.6c-0.4,0-0.8-0.4-0.8-0.8C8.2,56.4,8.5,56,9,56h3.9v-1.2H9c-1.1,0-2,0.9-2,2s0.9,2,2,2V57.6z"/><path d="M14.6,35.1h6.1v-1.2h-6.1c-0.5,0-1-0.4-1-1c0-0.5,0.4-0.9,0.9-1l0.6-0.1l0-0.6c0-1,0.8-1.8,1.9-1.8c1,0,1.8,0.9,1.8,2V32   l0.6,0c0.5,0,0.9,0.4,0.9,0.9h1.2c0-1-0.7-1.8-1.6-2.1c-0.2-1.5-1.5-2.7-3-2.7c-1.6,0-2.8,1.2-3,2.7c-0.8,0.3-1.4,1.1-1.4,2.1   C12.4,34.1,13.4,35.1,14.6,35.1z"/><rect x="21.5" y="33.9" width="2.7" height="1.2"/><path d="M84.3,34.3h6.1v-1.2h-6.1c-0.5,0-1-0.4-1-1c0-0.5,0.4-0.9,0.9-1l0.6-0.1l0-0.6c0-1,0.8-1.8,1.8-1.8c1,0,1.8,0.9,1.8,2v0.6   l0.6,0c0.5,0,0.9,0.4,0.9,0.9h1.2c0-1-0.7-1.8-1.6-2.1c-0.2-1.5-1.5-2.7-3-2.7c-1.5,0-2.8,1.2-3,2.6c-0.8,0.3-1.4,1.1-1.4,2.1   C82.1,33.3,83.1,34.3,84.3,34.3z"/><rect x="91.1" y="33.1" width="2.7" height="1.2"/><path d="M50.8,23.8h7.8v-1.2h-7.8c-0.8,0-1.4-0.6-1.4-1.4c0-0.7,0.5-1.3,1.3-1.4l0.6-0.1l0-0.6c0-1.4,1.1-2.5,2.5-2.5   c1.3,0,2.5,1.3,2.5,2.7v0.6l0.6,0c0.7,0,1.3,0.6,1.3,1.4h1.2c0-1.2-0.9-2.2-2-2.5c-0.3-1.9-1.9-3.4-3.7-3.4c-1.9,0-3.5,1.5-3.7,3.4   c-1.1,0.4-1.8,1.4-1.8,2.5C48.1,22.6,49.3,23.8,50.8,23.8z"/><rect x="59.6" y="22.6" width="3.5" height="1.2"/><path d="M63.8,12.2c-1.9,0-3.5,1.6-3.5,3.5s1.6,3.5,3.5,3.5s3.5-1.6,3.5-3.5S65.7,12.2,63.8,12.2z M63.8,17.9c-1.2,0-2.3-1-2.3-2.3   s1-2.3,2.3-2.3s2.3,1,2.3,2.3S65.1,17.9,63.8,17.9z"/><rect x="63.2" y="10.4" width="1.2" height="1.2"/><rect x="60.9" y="11" transform="matrix(0.5 0.866 -0.866 0.5 40.8055 -47.4365)" width="1.2" height="1.2"/><rect x="59.2" y="12.7" transform="matrix(0.866 0.5 -0.5 0.866 14.6702 -28.1045)" width="1.2" height="1.2"/><rect x="58.6" y="15" width="1.2" height="1.2"/><rect x="59.2" y="17.4" transform="matrix(0.866 -0.5 0.5 0.866 -0.9793 32.2989)" width="1.2" height="1.2"/><rect x="60.9" y="19.1" transform="matrix(0.5 -0.866 0.866 0.5 13.6997 63.088)" width="1.2" height="1.2"/><rect x="63.2" y="19.7" width="1.2" height="1.2"/><rect x="65.5" y="19.1" transform="matrix(-0.8661 0.4999 -0.4999 -0.8661 133.2546 3.6606)" width="1.2" height="1.2"/><rect x="67.2" y="17.4" transform="matrix(0.866 0.5 -0.5 0.866 18.0777 -31.512)" width="1.2" height="1.2"/><rect x="67.9" y="15" width="1.2" height="1.2"/><rect x="67.2" y="12.7" transform="matrix(0.5 0.866 -0.866 0.5 45.4559 -52.0889)" width="1.2" height="1.2"/><rect x="65.5" y="11" transform="matrix(0.866 0.5 -0.5 0.866 14.6691 -31.5099)" width="1.2" height="1.2"/><path d="M62.5,14.4c-0.7,0.7-0.7,1.9,0,2.6l0.9-0.9c-0.2-0.2-0.2-0.6,0-0.8c0.1-0.1,0.3-0.2,0.4-0.2s0.3,0.1,0.4,0.2l0.9-0.9   c-0.3-0.3-0.8-0.5-1.3-0.5S62.9,14,62.5,14.4z"/></g></svg>