<svg xmlns="http://www.w3.org/2000/svg" xmlns:xlink="http://www.w3.org/1999/xlink" version="1.1" x="0px" y="0px" viewBox="0 0 94.898 118.6125" enable-background="new 0 0 94.898 94.89" xml:space="preserve"><g><g><path d="M23.588,61.982V61.98h-0.002L23.588,61.982z M92.85,63.775l2.049-2.192h-0.002l-13.531-12.64h11.396v-2.999H81.362    l13.534-12.641l-2.047-2.192L76.967,45.944h-7.412l7.553-7.055l-2.047-2.191l-9.902,9.246h-5.896l4.794-4.477l-2.048-2.192    l-7.141,6.669h-3.794l9.677-9.676l10.671-0.362l-0.103-2.998l-7.461,0.253l3.277-3.277l13.536-0.461l-0.103-2.998v-0.002    l-12.523,0.43l0.427-12.525l-2.997-0.101L65.01,27.764l-3.276,3.277l0.255-7.463l-2.998-0.103l-0.364,10.674l-9.673,9.674v-3.796    l6.667-7.138l-2.191-2.048l-4.476,4.792v-5.898l9.245-9.899l-2.191-2.046l-7.054,7.549v-7.413l14.83-15.878L61.592,0L48.953,13.53    V2.136h-3v11.396L33.313,0l-2.191,2.048l14.832,15.879v7.415l-7.055-7.554l-2.19,2.048h-0.002l9.248,9.899v5.899l-4.477-4.792    l-2.191,2.048h-0.002l6.67,7.139v3.795l-9.676-9.676l-0.364-10.672l-2.998,0.103l0.254,7.461l-3.277-3.277L29.43,14.224    l-2.997,0.103l0.427,12.524l-12.524-0.427l-0.101,2.999h-0.002l13.54,0.462l3.277,3.277l-7.463-0.255l-0.101,3h-0.002    l10.672,0.363l9.675,9.675h-3.8l-7.143-6.67l-2.047,2.194l4.792,4.476h-5.897l-9.9-9.247l-2.048,2.194l7.553,7.052H17.93    L2.047,31.112L0,33.306l13.534,12.639H2.137v3h11.394L0,61.583l2.047,2.193v-0.002l15.879-14.831h7.414l-7.551,7.054l2.048,2.194    V58.19l9.898-9.246h5.899l-4.792,4.476l2.047,2.192l7.138-6.668h3.804l-9.674,9.673l-10.673,0.365l0.103,2.998l7.461-0.255    l-3.278,3.277l-13.536,0.463l0.101,3v-0.002l12.523-0.428l-0.427,12.523l2.999,0.104l0.462-13.542l3.278-3.277l-0.255,7.464    l2.998,0.104l0.364-10.675l9.675-9.675v3.797l-6.668,7.139l2.191,2.05v-0.002l4.477-4.793v5.897l-9.248,9.9l2.193,2.049v-0.002    l7.054-7.553v7.415L31.122,92.841l2.192,2.049v-0.002l12.64-13.533v11.397h2.999V81.357l12.639,13.531l2.192-2.047l-14.831-15.88    v-7.416l7.053,7.553l2.193-2.047l-9.246-9.9v-5.896l4.475,4.792l2.193-2.048l-6.668-7.142v-3.794l9.674,9.674l0.364,10.675    l3-0.103l-0.255-7.463l3.275,3.275l0.463,13.541l2.999-0.103l-0.429-12.525l12.522,0.43l0.105-2.997l-0.002-0.003l-13.535-0.461    l-3.277-3.277l7.461,0.255l0.103-2.998v-0.002l-10.673-0.363l-9.676-9.675h3.797l7.139,6.668l2.048-2.19v-0.002l-4.792-4.476    h5.897l9.899,9.248L77.109,56l-0.002-0.002l-7.553-7.055h7.415L92.85,63.775z"/></g></g></svg>