<svg width="92" height="118.6125" xmlns="http://www.w3.org/2000/svg">

 <g>
  <title>background</title>
  <rect fill="none" id="canvas_background" height="120.6125" width="94" y="-1" x="-1"/>
 </g>
 <g>
  <title>Layer 1</title>
  <g stroke="null" id="svg_1">
   <g stroke="null" id="svg_2">
    <path stroke="null" id="svg_3" d="m27.670201,70.166664l0,-0.001494l-0.001536,0l0.001536,0.001494zm53.205307,1.339528l1.57399,-1.637616l-0.001536,0l-10.39417,-9.443187l8.754117,0l0,-2.240516l-8.75719,0l10.396475,-9.443934l-1.572453,-1.637616l-12.200149,11.08155l-5.69371,0l5.802023,-5.270703l-1.572453,-1.636869l-7.606465,6.907572l-4.529157,0l3.682629,-3.344711l-1.573222,-1.637616l-5.485535,4.982327l-2.914454,0l7.433625,-7.228819l8.197191,-0.270446l-0.079122,-2.239768l-5.731351,0.189013l2.517308,-2.448206l10.398011,-0.344407l-0.079122,-2.239768l0,-0.001494l-9.61985,0.321248l0.328011,-9.357272l-2.302219,-0.075456l-0.357201,10.113324l-2.51654,2.448206l0.195885,-5.575514l-2.302987,-0.07695l-0.279616,7.974413l-7.430553,7.227325l0,-2.835944l5.12142,-5.332711l-1.68307,-1.530035l-3.438349,3.580044l0,-4.406322l7.101774,-7.39542l-1.68307,-1.528541l-5.418703,5.639764l0,-5.53816l11.392029,-11.862256l-1.683839,-1.530035l-9.708958,10.108095l0,-8.512316l-2.304524,0l0,8.51381l-9.709727,-10.109589l-1.68307,1.530035l11.393565,11.863003l0,5.539654l-5.419472,-5.643499l-1.682302,1.530035l-0.001536,0l7.104078,7.39542l0,4.407069l-3.439118,-3.580044l-1.68307,1.530035l-0.001536,0l5.123724,5.333458l0,2.835197l-7.432857,-7.228819l-0.279616,-7.972918l-2.302987,0.07695l0.195116,5.57402l-2.517308,-2.448206l-0.356433,-10.114818l-2.302219,0.07695l0.328011,9.356525l-9.620618,-0.319006l-0.077586,2.240516l-0.001536,0l10.401084,0.345154l2.517308,2.448206l-5.732887,-0.190507l-0.077586,2.241263l-0.001536,0l8.197959,0.271193l7.432089,7.228072l-2.919063,0l-5.487071,-4.983074l-1.572453,1.63911l3.681093,3.343964l-4.529925,0l-7.604928,-6.908319l-1.573222,1.63911l5.802023,5.268461l-5.692942,0l-12.200917,-11.080803l-1.572453,1.63911l10.396475,9.44244l-8.754886,0l0,2.241263l8.752581,0l-10.39417,9.441692l1.572453,1.638363l0,-0.001494l12.197844,-11.080055l5.695246,0l-5.800486,5.269956l1.573222,1.63911l0,-0.000747l7.603392,-6.907572l4.531462,0l-3.681093,3.343964l1.572453,1.637616l5.48323,-4.98158l2.922136,0l-7.431321,7.226578l-8.198727,0.272687l0.079122,2.239768l5.731351,-0.190507l-2.518076,2.448206l-10.398011,0.345902l0.077586,2.241263l0,-0.001494l9.61985,-0.319753l-0.328011,9.355777l2.303756,0.077697l0.354897,-10.11706l2.518076,-2.448206l-0.195885,5.576261l2.302987,0.077697l0.279616,-7.97516l7.432089,-7.228072l0,2.836691l-5.122188,5.333458l1.68307,1.531529l0,-0.001494l3.439118,-3.580791l0,4.405575l-7.104078,7.396167l1.684607,1.530782l0,-0.001494l5.418703,-5.642752l0,5.539654l-11.391261,11.865992l1.683839,1.530782l0,-0.001494l9.709727,-10.110336l0,8.514557l2.303756,0l0,-8.513063l9.708958,10.108842l1.683839,-1.529288l-11.392797,-11.86375l0,-5.540401l5.417935,5.642752l1.684607,-1.529288l-7.102542,-7.396167l0,-4.404828l3.437581,3.580044l1.684607,-1.530035l-5.122188,-5.335699l0,-2.83445l7.431321,7.227325l0.279616,7.97516l2.304524,-0.07695l-0.195885,-5.575514l2.515772,2.446712l0.355665,10.116313l2.303756,-0.07695l-0.329547,-9.357272l9.619082,0.321248l0.080658,-2.239021l-0.001536,-0.002241l-10.397243,-0.344407l-2.517308,-2.448206l5.731351,0.190507l0.079122,-2.239768l0,-0.001494l-8.198727,-0.271193l-7.432857,-7.228072l2.916759,0l5.483998,4.98158l1.573222,-1.636122l0,-0.001494l-3.681093,-3.343964l4.529925,0l7.60416,6.909066l1.57399,-1.636869l-0.001536,-0.001494l-5.802023,-5.270703l5.696014,0l12.19938,11.080803z"/>
   </g>
  </g>
 </g>
</svg>