<svg
    xmlns="http://www.w3.org/2000/svg"
    viewBox="0 0 96 96"
    id="vector">
    <g
        id="group_3"
        transform="translate(15.652173913043478 -26.08695652173913) translate(50.086956521739125 50.086956521739125) scale(2 1.4) translate(-50.086956521739125 -50.086956521739125)">
        <path
            id="path"
            d="M 81.434 49.774 C 81.37 49.774 81.308 49.774 81.245 49.776 C 79.991 41.377 72.792 35.133 64.213 35.133 C 56.914 35.133 50.328 39.849 47.932 46.691 C 46.708 46.347 45.431 46.166 44.198 46.166 C 37.398 46.166 31.703 51.071 30.638 57.7 C 30.333 57.67 30.047 57.654 29.765 57.654 C 24.382 57.654 20.001 62.041 20.001 67.432 C 20.001 72.818 24.382 77.2 29.765 77.2 L 81.434 77.2 C 88.998 77.201 95.151 71.051 95.151 63.494 C 95.151 55.927 88.998 49.774 81.434 49.774 Z"
            fill="#eeeeee"
            stroke="#000000"
            stroke-opacity="0"/>
    </g>
    <g
        id="group_2"
        transform="translate(-26.08695652173913 0) translate(50.086956521739125 50.086956521739125) scale(2 1.2) translate(-50.086956521739125 -50.086956521739125)">
        <path
            id="second_front_cloud"
            d="M 81.434 49.774 C 81.37 49.774 81.308 49.774 81.245 49.776 C 79.991 41.377 72.792 35.133 64.213 35.133 C 56.914 35.133 50.328 39.849 47.932 46.691 C 46.708 46.347 45.431 46.166 44.198 46.166 C 37.398 46.166 31.703 51.071 30.638 57.7 C 30.333 57.67 30.047 57.654 29.765 57.654 C 24.382 57.654 20.001 62.041 20.001 67.432 C 20.001 72.818 24.382 77.2 29.765 77.2 L 81.434 77.2 C 88.998 77.201 95.151 71.051 95.151 63.494 C 95.151 55.927 88.998 49.774 81.434 49.774 Z"
            fill="#cccccc"
            stroke="#000000"
            stroke-opacity="0"/>
    </g>
    <g
        id="group_1"
        transform="translate(15.652173913043478 10.434782608695652) translate(50.086956521739125 50.086956521739125) scale(2 1.2) translate(-50.086956521739125 -50.086956521739125)">
        <path
            id="back_cloud"
            d="M 81.434 49.774 C 81.37 49.774 81.308 49.774 81.245 49.776 C 79.991 41.377 72.792 35.133 64.213 35.133 C 56.914 35.133 50.328 39.849 47.932 46.691 C 46.708 46.347 45.431 46.166 44.198 46.166 C 37.398 46.166 31.703 51.071 30.638 57.7 C 30.333 57.67 30.047 57.654 29.765 57.654 C 24.382 57.654 20.001 62.041 20.001 67.432 C 20.001 72.818 24.382 77.2 29.765 77.2 L 81.434 77.2 C 88.998 77.201 95.151 71.051 95.151 63.494 C 95.151 55.927 88.998 49.774 81.434 49.774 Z"
            fill="#aaaaaa"
            stroke="#000000"
            stroke-opacity="0"/>
    </g>
    <g
        id="group"
        transform="translate(5.217391304347826 -1.0434782608695652)">
        <path
            id="front_cloud"
            d="M 81.434 49.774 C 81.37 49.774 81.308 49.774 81.245 49.776 C 79.991 41.377 72.792 35.133 64.213 35.133 C 56.914 35.133 50.328 39.849 47.932 46.691 C 46.708 46.347 45.431 46.166 44.198 46.166 C 37.398 46.166 31.703 51.071 30.638 57.7 C 30.333 57.67 30.047 57.654 29.765 57.654 C 24.382 57.654 20.001 62.041 20.001 67.432 C 20.001 72.818 24.382 77.2 29.765 77.2 L 81.434 77.2 C 88.998 77.201 95.151 71.051 95.151 63.494 C 95.151 55.927 88.998 49.774 81.434 49.774 Z"
            fill="#dddddd"
            stroke="#000000"
            stroke-opacity="0"/>
    </g>
    <g
        id="group_4"
        transform="translate(-10 -5) scale(0.9 0.9)">
        <path
            id="path_1"
            d="M 48.09 1.237 C 40.022 1.237 48.09 22.131 48.09 22.131 C 48.09 22.131 56.157 1.237 48.09 1.237 Z M 14.998 14.87 C 9.292 20.574 29.771 29.645 29.771 29.645 C 29.771 29.645 20.702 9.167 14.998 14.87 Z M 1.238 47.91 C 1.238 55.979 22.132 47.91 22.132 47.91 C 22.132 47.91 1.238 39.842 1.238 47.91 Z M 14.871 81.003 C 20.575 86.709 29.645 66.229 29.645 66.229 C 29.645 66.229 9.167 75.298 14.871 81.003 Z M 47.911 94.763 C 55.979 94.763 47.911 73.869 47.911 73.869 C 47.911 73.869 39.843 94.763 47.911 94.763 Z M 66.231 66.356 C 66.231 66.356 75.299 86.834 81.003 81.129 C 86.709 75.425 66.231 66.356 66.231 66.356 Z M 73.868 48.09 C 73.868 48.09 94.762 56.158 94.762 48.09 C 94.762 40.021 73.868 48.09 73.868 48.09 Z M 81.13 14.998 C 75.426 9.291 66.356 29.771 66.356 29.771 C 66.356 29.771 86.834 20.701 81.13 14.998 Z"
            fill="#ff7043"
            stroke-width="0.078"/>
        <path
            id="path_2"
            d="M 48.09 29.801 C 44.234 29.801 40.475 31.022 37.356 33.289 C 34.236 35.555 31.913 38.752 30.722 42.42 C 29.53 46.087 29.53 50.039 30.722 53.706 C 31.913 57.373 34.236 60.57 37.356 62.837 C 40.475 65.103 44.234 66.324 48.09 66.324 C 52.931 66.324 57.579 64.399 61.002 60.975 C 64.426 57.552 66.351 52.904 66.351 48.063 C 66.351 43.221 64.426 38.573 61.002 35.15 C 57.579 31.726 52.931 29.801 48.09 29.801 Z"
            fill="#ffd740"
            stroke-width="0.1036"/>
    </g>
</svg>
